<svg width="148" height="44" viewBox="0 0 148 44" fill="none" xmlns="http://www.w3.org/2000/svg">
<g style="mix-blend-mode:multiply">
<rect width="148" height="44" rx="22" fill="#F2F4F7"/>
<path fill-rule="evenodd" clip-rule="evenodd" d="M27.0125 13C27.6125 12.3688 28 12 28 12C28.1367 12.4533 28.2913 12.8858 28.4638 13.2975C29.4788 15.73 31.055 17.485 32.46 19.0475C34.0975 20.87 35.5 22.4312 35.5 24.5C35.5 26.4891 34.7098 28.3968 33.3033 29.8033C31.8968 31.2098 29.9891 32 28 32C26.0109 32 24.1032 31.2098 22.6967 29.8033C21.2902 28.3968 20.5 26.4891 20.5 24.5C20.5 20.335 24.975 15.1463 27.0125 13ZM27.5288 14.2762C26.7257 15.1446 25.9628 16.0493 25.2425 16.9875C24.335 18.175 23.4475 19.4975 22.7925 20.825C22.13 22.1663 21.75 23.4225 21.75 24.5C21.75 26.1576 22.4085 27.7473 23.5806 28.9194C24.7527 30.0915 26.3424 30.75 28 30.75C29.6576 30.75 31.2473 30.0915 32.4194 28.9194C33.5915 27.7473 34.25 26.1576 34.25 24.5C34.25 22.9987 33.255 21.8038 31.5238 19.875L31.4862 19.835C30.1875 18.3875 28.625 16.6512 27.5288 14.2762Z" fill="#101828"/>
<path fill-rule="evenodd" clip-rule="evenodd" d="M23.6913 21.72C24.7163 19.6687 25.8375 18.2787 26.3075 17.8075L27.1925 18.6925C26.83 19.055 25.7825 20.3312 24.8088 22.28L23.6913 21.72Z" fill="#101828"/>
<path d="M47.4815 28V16.3636H51.7429C52.5687 16.3636 53.2524 16.5 53.794 16.7727C54.3357 17.0417 54.741 17.4072 55.0099 17.8693C55.2789 18.3277 55.4134 18.8447 55.4134 19.4205C55.4134 19.9053 55.3243 20.3144 55.1463 20.6477C54.9683 20.9773 54.7296 21.2424 54.4304 21.4432C54.1349 21.6402 53.8092 21.7841 53.4531 21.875V21.9886C53.8395 22.0076 54.2164 22.1326 54.5838 22.3636C54.955 22.5909 55.2618 22.9148 55.5043 23.3352C55.7467 23.7557 55.8679 24.267 55.8679 24.8693C55.8679 25.464 55.7277 25.9981 55.4474 26.4716C55.1709 26.9413 54.7429 27.3144 54.1634 27.5909C53.5838 27.8636 52.8433 28 51.9418 28H47.4815ZM49.2372 26.4943H51.7713C52.6122 26.4943 53.2145 26.3314 53.5781 26.0057C53.9418 25.6799 54.1236 25.2727 54.1236 24.7841C54.1236 24.4167 54.0308 24.0795 53.8452 23.7727C53.6596 23.4659 53.3944 23.2216 53.0497 23.0398C52.7088 22.858 52.3035 22.767 51.8338 22.767H49.2372V26.4943ZM49.2372 21.3977H51.5895C51.9834 21.3977 52.3376 21.322 52.652 21.1705C52.9702 21.0189 53.2221 20.8068 53.4077 20.5341C53.5971 20.2576 53.6918 19.9318 53.6918 19.5568C53.6918 19.0758 53.5232 18.6723 53.1861 18.3466C52.849 18.0208 52.3319 17.858 51.6349 17.858H49.2372V21.3977ZM60.3537 28.1932C59.8007 28.1932 59.3007 28.0909 58.8537 27.8864C58.4067 27.678 58.0526 27.3769 57.7912 26.983C57.5336 26.589 57.4048 26.1061 57.4048 25.5341C57.4048 25.0417 57.4995 24.6364 57.6889 24.3182C57.8783 24 58.134 23.7481 58.456 23.5625C58.7779 23.3769 59.1378 23.2367 59.5355 23.142C59.9332 23.0473 60.3385 22.9754 60.7514 22.9261C61.2741 22.8655 61.6984 22.8163 62.0241 22.7784C62.3499 22.7367 62.5866 22.6705 62.7344 22.5795C62.8821 22.4886 62.956 22.3409 62.956 22.1364V22.0966C62.956 21.6004 62.8158 21.2159 62.5355 20.9432C62.259 20.6705 61.8461 20.5341 61.2969 20.5341C60.7249 20.5341 60.2741 20.661 59.9446 20.9148C59.6188 21.1648 59.3935 21.4432 59.2685 21.75L57.6719 21.3864C57.8613 20.8561 58.1378 20.428 58.5014 20.1023C58.8688 19.7727 59.2912 19.5341 59.7685 19.3864C60.2457 19.2348 60.7476 19.1591 61.2741 19.1591C61.6226 19.1591 61.992 19.2008 62.3821 19.2841C62.776 19.3636 63.1435 19.5114 63.4844 19.7273C63.8291 19.9432 64.1113 20.2519 64.331 20.6534C64.5507 21.0511 64.6605 21.5682 64.6605 22.2045V28H63.0014V26.8068H62.9332C62.8234 27.0265 62.6586 27.2424 62.4389 27.4545C62.2192 27.6667 61.937 27.8428 61.5923 27.983C61.2476 28.1231 60.8348 28.1932 60.3537 28.1932ZM60.723 26.8295C61.1927 26.8295 61.5942 26.7367 61.9276 26.5511C62.2647 26.3655 62.5204 26.1231 62.6946 25.8239C62.8726 25.5208 62.9616 25.197 62.9616 24.8523V23.7273C62.901 23.7879 62.7836 23.8447 62.6094 23.8977C62.4389 23.947 62.2438 23.9905 62.0241 24.0284C61.8045 24.0625 61.5904 24.0947 61.3821 24.125C61.1738 24.1515 60.9995 24.1742 60.8594 24.1932C60.5298 24.2348 60.2287 24.3049 59.956 24.4034C59.687 24.5019 59.4711 24.6439 59.3082 24.8295C59.1491 25.0114 59.0696 25.2538 59.0696 25.5568C59.0696 25.9773 59.2249 26.2955 59.5355 26.5114C59.8461 26.7235 60.242 26.8295 60.723 26.8295ZM70.9972 19.2727V20.6364H66.2301V19.2727H70.9972ZM67.5085 17.1818H69.2074V25.4375C69.2074 25.767 69.2566 26.0152 69.3551 26.1818C69.4536 26.3447 69.5805 26.4564 69.7358 26.517C69.8949 26.5739 70.0672 26.6023 70.2528 26.6023C70.3892 26.6023 70.5085 26.5928 70.6108 26.5739C70.7131 26.5549 70.7926 26.5398 70.8494 26.5284L71.1562 27.9318C71.0578 27.9697 70.9176 28.0076 70.7358 28.0455C70.554 28.0871 70.3267 28.1098 70.054 28.1136C69.607 28.1212 69.1903 28.0417 68.804 27.875C68.4176 27.7083 68.1051 27.4508 67.8665 27.1023C67.6278 26.7538 67.5085 26.3163 67.5085 25.7898V17.1818ZM74.7628 22.8182V28H73.0639V16.3636H74.7401V20.6932H74.848C75.0526 20.2235 75.3651 19.8504 75.7855 19.5739C76.206 19.2973 76.7552 19.1591 77.4332 19.1591C78.0317 19.1591 78.5545 19.2822 79.0014 19.5284C79.4522 19.7746 79.8007 20.142 80.0469 20.6307C80.2969 21.1155 80.4219 21.7216 80.4219 22.4489V28H78.723V22.6534C78.723 22.0133 78.5582 21.517 78.2287 21.1648C77.8991 20.8087 77.4408 20.6307 76.8537 20.6307C76.4522 20.6307 76.0923 20.7159 75.7741 20.8864C75.4598 21.0568 75.2116 21.3068 75.0298 21.6364C74.8518 21.9621 74.7628 22.3561 74.7628 22.8182ZM82.6889 28V19.2727H84.331V20.6591H84.4219C84.581 20.1894 84.8613 19.8201 85.2628 19.5511C85.6681 19.2784 86.1264 19.142 86.6378 19.142C86.7438 19.142 86.8688 19.1458 87.0128 19.1534C87.1605 19.161 87.276 19.1705 87.3594 19.1818V20.8068C87.2912 20.7879 87.17 20.767 86.9957 20.7443C86.8215 20.7178 86.6473 20.7045 86.473 20.7045C86.0715 20.7045 85.7135 20.7898 85.3991 20.9602C85.0885 21.1269 84.8423 21.3598 84.6605 21.6591C84.4787 21.9545 84.3878 22.2917 84.3878 22.6705V28H82.6889ZM92.1932 28.1761C91.375 28.1761 90.661 27.9886 90.0511 27.6136C89.4413 27.2386 88.9678 26.714 88.6307 26.0398C88.2936 25.3655 88.125 24.5777 88.125 23.6761C88.125 22.7708 88.2936 21.9792 88.6307 21.3011C88.9678 20.6231 89.4413 20.0966 90.0511 19.7216C90.661 19.3466 91.375 19.1591 92.1932 19.1591C93.0114 19.1591 93.7254 19.3466 94.3352 19.7216C94.9451 20.0966 95.4186 20.6231 95.7557 21.3011C96.0928 21.9792 96.2614 22.7708 96.2614 23.6761C96.2614 24.5777 96.0928 25.3655 95.7557 26.0398C95.4186 26.714 94.9451 27.2386 94.3352 27.6136C93.7254 27.9886 93.0114 28.1761 92.1932 28.1761ZM92.1989 26.75C92.7292 26.75 93.1686 26.6098 93.517 26.3295C93.8655 26.0492 94.1231 25.6761 94.2898 25.2102C94.4602 24.7443 94.5455 24.2311 94.5455 23.6705C94.5455 23.1136 94.4602 22.6023 94.2898 22.1364C94.1231 21.6667 93.8655 21.2898 93.517 21.0057C93.1686 20.7216 92.7292 20.5795 92.1989 20.5795C91.6648 20.5795 91.2216 20.7216 90.8693 21.0057C90.5208 21.2898 90.2614 21.6667 90.0909 22.1364C89.9242 22.6023 89.8409 23.1136 89.8409 23.6705C89.8409 24.2311 89.9242 24.7443 90.0909 25.2102C90.2614 25.6761 90.5208 26.0492 90.8693 26.3295C91.2216 26.6098 91.6648 26.75 92.1989 26.75ZM101.834 28.1761C101.016 28.1761 100.302 27.9886 99.6918 27.6136C99.0819 27.2386 98.6084 26.714 98.2713 26.0398C97.9342 25.3655 97.7656 24.5777 97.7656 23.6761C97.7656 22.7708 97.9342 21.9792 98.2713 21.3011C98.6084 20.6231 99.0819 20.0966 99.6918 19.7216C100.302 19.3466 101.016 19.1591 101.834 19.1591C102.652 19.1591 103.366 19.3466 103.976 19.7216C104.586 20.0966 105.059 20.6231 105.396 21.3011C105.733 21.9792 105.902 22.7708 105.902 23.6761C105.902 24.5777 105.733 25.3655 105.396 26.0398C105.059 26.714 104.586 27.2386 103.976 27.6136C103.366 27.9886 102.652 28.1761 101.834 28.1761ZM101.839 26.75C102.37 26.75 102.809 26.6098 103.158 26.3295C103.506 26.0492 103.764 25.6761 103.93 25.2102C104.101 24.7443 104.186 24.2311 104.186 23.6705C104.186 23.1136 104.101 22.6023 103.93 22.1364C103.764 21.6667 103.506 21.2898 103.158 21.0057C102.809 20.7216 102.37 20.5795 101.839 20.5795C101.305 20.5795 100.862 20.7216 100.51 21.0057C100.161 21.2898 99.902 21.6667 99.7315 22.1364C99.5649 22.6023 99.4815 23.1136 99.4815 23.6705C99.4815 24.2311 99.5649 24.7443 99.7315 25.2102C99.902 25.6761 100.161 26.0492 100.51 26.3295C100.862 26.6098 101.305 26.75 101.839 26.75ZM107.798 28V19.2727H109.429V20.6932H109.537C109.719 20.2121 110.016 19.8371 110.429 19.5682C110.842 19.2955 111.336 19.1591 111.912 19.1591C112.495 19.1591 112.984 19.2955 113.378 19.5682C113.776 19.8409 114.069 20.2159 114.259 20.6932H114.349C114.558 20.2273 114.889 19.8561 115.344 19.5795C115.798 19.2992 116.34 19.1591 116.969 19.1591C117.76 19.1591 118.406 19.4072 118.906 19.9034C119.41 20.3996 119.662 21.1477 119.662 22.1477V28H117.963V22.3068C117.963 21.7159 117.802 21.2879 117.48 21.0227C117.158 20.7576 116.774 20.625 116.327 20.625C115.774 20.625 115.344 20.7955 115.037 21.1364C114.73 21.4735 114.577 21.9072 114.577 22.4375V28H112.884V22.1989C112.884 21.7254 112.736 21.3447 112.44 21.0568C112.145 20.7689 111.76 20.625 111.287 20.625C110.965 20.625 110.668 20.7102 110.395 20.8807C110.126 21.0473 109.908 21.2803 109.741 21.5795C109.579 21.8788 109.497 22.2254 109.497 22.6193V28H107.798Z" fill="#101828"/>
</g>
</svg>
