<svg aria-hidden="true" style="position: absolute; width: 0; height: 0; overflow: hidden;" version="1.1" xmlns="http://www.w3.org/2000/svg" xmlns:xlink="http://www.w3.org/1999/xlink">
<defs>
<symbol id="icon-ac" viewBox="0 0 32 32">
<path d="M25 4c-1.326 0-2.598 0.527-3.535 1.464s-1.465 2.209-1.465 3.536c0 0.265-0.105 0.52-0.293 0.707s-0.442 0.293-0.707 0.293c-0.265 0-0.52-0.105-0.707-0.293s-0.293-0.442-0.293-0.707c0-1.384 0.41-2.738 1.18-3.889s1.862-2.048 3.142-2.578c1.279-0.53 2.687-0.668 4.044-0.398s2.605 0.937 3.584 1.916c0.979 0.979 1.646 2.226 1.916 3.584s0.131 2.765-0.398 4.044c-0.53 1.279-1.427 2.372-2.578 3.142s-2.505 1.18-3.889 1.18h-24c-0.265 0-0.52-0.105-0.707-0.293s-0.293-0.442-0.293-0.707c0-0.265 0.105-0.52 0.293-0.707s0.442-0.293 0.707-0.293h24c1.326 0 2.598-0.527 3.535-1.464s1.465-2.209 1.465-3.536-0.527-2.598-1.465-3.536c-0.938-0.938-2.209-1.464-3.535-1.464zM11 6c-0.53 0-1.039 0.211-1.414 0.586s-0.586 0.884-0.586 1.414c0 0.265-0.105 0.52-0.293 0.707s-0.442 0.293-0.707 0.293c-0.265 0-0.52-0.105-0.707-0.293s-0.293-0.442-0.293-0.707c0-0.791 0.235-1.564 0.674-2.222s1.064-1.17 1.795-1.473c0.731-0.303 1.535-0.382 2.311-0.228s1.489 0.535 2.048 1.095 0.94 1.272 1.095 2.048c0.154 0.776 0.075 1.58-0.228 2.311s-0.815 1.356-1.473 1.795-1.431 0.674-2.222 0.674h-10c-0.265 0-0.52-0.105-0.707-0.293s-0.293-0.442-0.293-0.707c0-0.265 0.105-0.52 0.293-0.707s0.442-0.293 0.707-0.293h10c0.53 0 1.039-0.211 1.414-0.586s0.586-0.884 0.586-1.414c0-0.53-0.211-1.039-0.586-1.414s-0.884-0.586-1.414-0.586zM0 19c0-0.265 0.105-0.52 0.293-0.707s0.442-0.293 0.707-0.293h20.084c1.187 0 2.347 0.352 3.333 1.011s1.756 1.596 2.21 2.693c0.454 1.096 0.573 2.303 0.341 3.467s-0.803 2.233-1.642 3.072c-0.839 0.839-1.908 1.411-3.072 1.642s-2.37 0.113-3.467-0.341-2.033-1.223-2.693-2.21c-0.659-0.987-1.011-2.147-1.011-3.333 0-0.265 0.105-0.52 0.293-0.707s0.442-0.293 0.707-0.293c0.265 0 0.52 0.105 0.707 0.293s0.293 0.442 0.293 0.707c0 0.791 0.235 1.564 0.674 2.222s1.064 1.171 1.795 1.473c0.731 0.303 1.535 0.382 2.311 0.228s1.489-0.535 2.048-1.095 0.94-1.272 1.095-2.048c0.154-0.776 0.075-1.58-0.228-2.311s-0.815-1.356-1.473-1.795c-0.658-0.439-1.431-0.674-2.222-0.674h-20.084c-0.265 0-0.52-0.105-0.707-0.293s-0.293-0.442-0.293-0.707z"></path>
</symbol>
<symbol id="icon-ac_text" viewBox="0 0 63 32">
<path fill="#f2f4f7" style="fill: var(--color1, #f2f4f7)" d="M16 0h31.273c8.837 0 16 7.163 16 16s-7.163 16-16 16h-31.273c-8.837 0-16-7.163-16-16s7.163-16 16-16z"></path>
<path fill="#101828" style="fill: var(--color2, #101828)" d="M24.455 10.545c-0.603 0-1.181 0.239-1.607 0.666s-0.666 1.004-0.666 1.607c0 0.121-0.048 0.236-0.133 0.321s-0.201 0.133-0.321 0.133-0.236-0.048-0.321-0.133c-0.085-0.085-0.133-0.201-0.133-0.321 0-0.629 0.187-1.245 0.536-1.768s0.847-0.931 1.428-1.172c0.581-0.241 1.221-0.304 1.838-0.181s1.184 0.426 1.629 0.871c0.445 0.445 0.748 1.012 0.871 1.629s0.060 1.257-0.181 1.838c-0.241 0.581-0.649 1.078-1.172 1.428s-1.138 0.536-1.768 0.536h-10.909c-0.121 0-0.236-0.048-0.321-0.133s-0.133-0.201-0.133-0.321 0.048-0.236 0.133-0.321c0.085-0.085 0.201-0.133 0.321-0.133h10.909c0.603 0 1.181-0.239 1.607-0.666s0.666-1.004 0.666-1.607-0.239-1.181-0.666-1.607c-0.426-0.426-1.004-0.666-1.607-0.666zM18.091 11.455c-0.241 0-0.472 0.096-0.643 0.266s-0.266 0.402-0.266 0.643c0 0.121-0.048 0.236-0.133 0.321s-0.201 0.133-0.321 0.133-0.236-0.048-0.321-0.133c-0.085-0.085-0.133-0.201-0.133-0.321 0-0.36 0.107-0.711 0.306-1.010s0.484-0.532 0.816-0.67c0.332-0.138 0.698-0.174 1.050-0.104s0.677 0.243 0.931 0.498c0.254 0.254 0.427 0.578 0.498 0.931s0.034 0.718-0.104 1.050-0.371 0.616-0.67 0.816c-0.299 0.2-0.65 0.306-1.010 0.306h-4.545c-0.121 0-0.236-0.048-0.321-0.133s-0.133-0.201-0.133-0.321 0.048-0.236 0.133-0.321c0.085-0.085 0.201-0.133 0.321-0.133h4.545c0.241 0 0.472-0.096 0.643-0.266s0.266-0.402 0.266-0.643c0-0.241-0.096-0.472-0.266-0.643s-0.402-0.266-0.643-0.266zM13.091 17.364c0-0.121 0.048-0.236 0.133-0.321s0.201-0.133 0.321-0.133h9.129c0.539 0 1.067 0.16 1.515 0.46s0.798 0.726 1.004 1.224c0.206 0.498 0.26 1.047 0.155 1.576s-0.365 1.015-0.746 1.396c-0.381 0.381-0.867 0.641-1.396 0.746s-1.077 0.051-1.576-0.155c-0.498-0.206-0.924-0.556-1.224-1.005s-0.46-0.976-0.46-1.515c0-0.121 0.048-0.236 0.133-0.321s0.201-0.133 0.321-0.133 0.236 0.048 0.321 0.133c0.085 0.085 0.133 0.201 0.133 0.321 0 0.36 0.107 0.711 0.306 1.010s0.484 0.532 0.816 0.67 0.698 0.174 1.050 0.104c0.353-0.070 0.677-0.243 0.931-0.498s0.427-0.578 0.498-0.931c0.070-0.353 0.034-0.718-0.104-1.050s-0.371-0.616-0.67-0.816c-0.299-0.2-0.65-0.306-1.010-0.306h-9.129c-0.121 0-0.236-0.048-0.321-0.133s-0.133-0.201-0.133-0.321z"></path>
<path fill="#101828" style="fill: var(--color2, #101828)" d="M35.309 20.364h-1.355l3.045-8.463h1.475l3.045 8.463h-1.355l-2.393-6.926h-0.066l-2.397 6.926zM35.537 17.050h4.397v1.074h-4.397v-1.074zM49.373 14.653h-1.289c-0.050-0.275-0.142-0.518-0.277-0.727s-0.3-0.387-0.496-0.533c-0.196-0.146-0.415-0.256-0.657-0.331-0.24-0.074-0.495-0.112-0.764-0.112-0.488 0-0.924 0.123-1.31 0.368-0.383 0.245-0.686 0.605-0.909 1.079-0.22 0.474-0.331 1.052-0.331 1.736 0 0.689 0.11 1.27 0.331 1.744 0.223 0.474 0.528 0.832 0.913 1.074s0.82 0.364 1.302 0.364c0.267 0 0.521-0.036 0.76-0.107 0.242-0.074 0.461-0.183 0.657-0.326s0.361-0.318 0.496-0.525c0.138-0.209 0.233-0.449 0.285-0.719l1.289 0.004c-0.069 0.416-0.202 0.799-0.401 1.149-0.196 0.347-0.448 0.647-0.756 0.901-0.306 0.251-0.656 0.445-1.050 0.583s-0.824 0.207-1.289 0.207c-0.733 0-1.386-0.174-1.959-0.521-0.573-0.35-1.025-0.85-1.355-1.5-0.328-0.65-0.492-1.426-0.492-2.326 0-0.904 0.165-1.679 0.496-2.326 0.331-0.65 0.782-1.149 1.355-1.496 0.573-0.35 1.224-0.525 1.955-0.525 0.449 0 0.868 0.065 1.256 0.194 0.391 0.127 0.742 0.314 1.054 0.562 0.311 0.245 0.569 0.545 0.773 0.901 0.204 0.353 0.342 0.756 0.413 1.211z"></path>
</symbol>
<symbol id="icon-automatic_text" viewBox="0 0 104 32">
<path fill="#f2f4f7" style="fill: var(--color1, #f2f4f7)" d="M16 0h72c8.837 0 16 7.163 16 16s-7.163 16-16 16h-72c-8.837 0-16-7.163-16-16s7.163-16 16-16z"></path>
<path fill="#101828" style="fill: var(--color2, #101828)" d="M18.545 11.909c0-0.362 0.144-0.709 0.399-0.964s0.603-0.399 0.964-0.399h0.909c0.362 0 0.709 0.144 0.964 0.399s0.399 0.603 0.399 0.964v0.909c0 0.362-0.144 0.709-0.399 0.964s-0.603 0.399-0.964 0.399v0.909h5c0.121 0 0.236 0.048 0.321 0.133s0.133 0.201 0.133 0.321v0.909c0 0.121-0.048 0.236-0.133 0.321s-0.201 0.133-0.321 0.133-0.236-0.048-0.321-0.133c-0.085-0.085-0.133-0.201-0.133-0.321v-0.455h-4.545v0.455c0 0.121-0.048 0.236-0.133 0.321s-0.201 0.133-0.321 0.133-0.236-0.048-0.321-0.133c-0.085-0.085-0.133-0.201-0.133-0.321v-0.455h-4.545v0.455c0 0.121-0.048 0.236-0.133 0.321s-0.201 0.133-0.321 0.133-0.236-0.048-0.321-0.133c-0.085-0.085-0.133-0.201-0.133-0.321v-0.909c0-0.121 0.048-0.236 0.133-0.321s0.201-0.133 0.321-0.133h5v-0.909c-0.362 0-0.709-0.144-0.964-0.399s-0.399-0.603-0.399-0.964v-0.909zM20.818 13.273c0.121 0 0.236-0.048 0.321-0.133s0.133-0.201 0.133-0.321v-0.909c0-0.121-0.048-0.236-0.133-0.321s-0.201-0.133-0.321-0.133h-0.909c-0.121 0-0.236 0.048-0.321 0.133s-0.133 0.201-0.133 0.321v0.909c0 0.121 0.048 0.236 0.133 0.321s0.201 0.133 0.321 0.133h0.909zM13.091 19.182c0-0.362 0.144-0.709 0.399-0.964s0.603-0.399 0.964-0.399h0.909c0.362 0 0.708 0.144 0.964 0.399s0.399 0.603 0.399 0.964v0.909c0 0.362-0.144 0.709-0.399 0.964s-0.603 0.399-0.964 0.399h-0.909c-0.362 0-0.709-0.144-0.964-0.399s-0.399-0.603-0.399-0.964v-0.909zM14.455 18.727c-0.121 0-0.236 0.048-0.321 0.133s-0.133 0.201-0.133 0.321v0.909c0 0.121 0.048 0.236 0.133 0.321s0.201 0.133 0.321 0.133h0.909c0.121 0 0.236-0.048 0.321-0.133s0.133-0.201 0.133-0.321v-0.909c0-0.121-0.048-0.236-0.133-0.321s-0.201-0.133-0.321-0.133h-0.909zM18.545 19.182c0-0.362 0.144-0.709 0.399-0.964s0.603-0.399 0.964-0.399h0.909c0.362 0 0.709 0.144 0.964 0.399s0.399 0.603 0.399 0.964v0.909c0 0.362-0.144 0.709-0.399 0.964s-0.603 0.399-0.964 0.399h-0.909c-0.362 0-0.709-0.144-0.964-0.399s-0.399-0.603-0.399-0.964v-0.909zM19.909 18.727c-0.121 0-0.236 0.048-0.321 0.133s-0.133 0.201-0.133 0.321v0.909c0 0.121 0.048 0.236 0.133 0.321s0.201 0.133 0.321 0.133h0.909c0.121 0 0.236-0.048 0.321-0.133s0.133-0.201 0.133-0.321v-0.909c0-0.121-0.048-0.236-0.133-0.321s-0.201-0.133-0.321-0.133h-0.909zM24 19.182c0-0.362 0.144-0.709 0.399-0.964s0.603-0.399 0.964-0.399h0.909c0.362 0 0.709 0.144 0.964 0.399s0.399 0.603 0.399 0.964v0.909c0 0.362-0.144 0.709-0.399 0.964s-0.603 0.399-0.964 0.399h-0.909c-0.362 0-0.709-0.144-0.964-0.399s-0.399-0.603-0.399-0.964v-0.909zM25.364 18.727c-0.121 0-0.236 0.048-0.321 0.133s-0.133 0.201-0.133 0.321v0.909c0 0.121 0.048 0.236 0.133 0.321s0.201 0.133 0.321 0.133h0.909c0.121 0 0.236-0.048 0.321-0.133s0.133-0.201 0.133-0.321v-0.909c0-0.121-0.048-0.236-0.133-0.321s-0.201-0.133-0.321-0.133h-0.909z"></path>
<path fill="#101828" style="fill: var(--color2, #101828)" d="M35.287 20.364h-1.355l3.045-8.463h1.475l3.045 8.463h-1.355l-2.393-6.926h-0.066l-2.397 6.926zM35.514 17.050h4.397v1.074h-4.397v-1.074zM46.641 17.731v-3.715h1.24v6.347h-1.215v-1.099h-0.066c-0.146 0.339-0.38 0.621-0.702 0.847-0.32 0.223-0.718 0.335-1.194 0.335-0.408 0-0.769-0.090-1.083-0.269-0.311-0.182-0.556-0.45-0.736-0.806-0.176-0.355-0.264-0.795-0.264-1.318v-4.037h1.236v3.888c0 0.433 0.12 0.777 0.36 1.033s0.551 0.384 0.934 0.384c0.231 0 0.461-0.058 0.69-0.174 0.231-0.116 0.423-0.291 0.574-0.525 0.154-0.234 0.23-0.532 0.227-0.893zM52.504 14.017v0.992h-3.467v-0.992h3.467zM49.966 12.496h1.236v6.004c0 0.24 0.036 0.42 0.107 0.541 0.072 0.118 0.164 0.2 0.277 0.244 0.116 0.041 0.241 0.062 0.376 0.062 0.099 0 0.186-0.007 0.26-0.021s0.132-0.025 0.174-0.033l0.223 1.021c-0.072 0.028-0.174 0.055-0.306 0.083-0.132 0.030-0.298 0.047-0.496 0.050-0.325 0.006-0.628-0.052-0.909-0.174s-0.508-0.308-0.682-0.562c-0.174-0.253-0.26-0.572-0.26-0.955v-6.26zM56.476 20.492c-0.595 0-1.114-0.136-1.558-0.409s-0.788-0.654-1.033-1.145c-0.245-0.49-0.368-1.063-0.368-1.719 0-0.658 0.123-1.234 0.368-1.727s0.59-0.876 1.033-1.149c0.444-0.273 0.963-0.409 1.558-0.409s1.114 0.136 1.558 0.409c0.444 0.273 0.788 0.656 1.033 1.149s0.368 1.069 0.368 1.727c0 0.656-0.123 1.229-0.368 1.719s-0.59 0.872-1.033 1.145c-0.444 0.273-0.963 0.409-1.558 0.409zM56.48 19.455c0.386 0 0.705-0.102 0.959-0.306s0.441-0.475 0.562-0.814c0.124-0.339 0.186-0.712 0.186-1.12 0-0.405-0.062-0.777-0.186-1.116-0.121-0.342-0.309-0.616-0.562-0.822s-0.573-0.31-0.959-0.31c-0.388 0-0.711 0.103-0.967 0.31-0.253 0.207-0.442 0.481-0.566 0.822-0.121 0.339-0.182 0.711-0.182 1.116 0 0.408 0.061 0.781 0.182 1.12 0.124 0.339 0.313 0.61 0.566 0.814 0.256 0.204 0.578 0.306 0.967 0.306zM60.814 20.364v-6.347h1.186v1.033h0.078c0.132-0.35 0.349-0.623 0.649-0.818 0.3-0.198 0.66-0.298 1.078-0.298 0.424 0 0.78 0.099 1.066 0.298 0.289 0.198 0.503 0.471 0.64 0.818h0.066c0.152-0.339 0.393-0.609 0.723-0.81 0.331-0.204 0.725-0.306 1.182-0.306 0.576 0 1.045 0.18 1.409 0.541 0.366 0.361 0.55 0.905 0.55 1.632v4.256h-1.236v-4.14c0-0.43-0.117-0.741-0.351-0.934s-0.514-0.289-0.839-0.289c-0.402 0-0.715 0.124-0.938 0.372-0.223 0.245-0.335 0.561-0.335 0.946v4.045h-1.231v-4.219c0-0.344-0.107-0.621-0.322-0.831s-0.495-0.314-0.839-0.314c-0.234 0-0.45 0.062-0.649 0.186-0.196 0.121-0.354 0.291-0.475 0.508-0.118 0.218-0.178 0.47-0.178 0.756v3.913h-1.236zM72.945 20.504c-0.402 0-0.766-0.074-1.091-0.223-0.325-0.152-0.583-0.371-0.773-0.657-0.187-0.287-0.281-0.638-0.281-1.054 0-0.358 0.069-0.653 0.207-0.884s0.324-0.415 0.558-0.55c0.234-0.135 0.496-0.237 0.785-0.306s0.584-0.121 0.885-0.157c0.38-0.044 0.689-0.080 0.925-0.107 0.237-0.030 0.409-0.078 0.517-0.145s0.161-0.174 0.161-0.322v-0.029c0-0.361-0.102-0.64-0.305-0.839-0.201-0.198-0.502-0.298-0.901-0.298-0.416 0-0.744 0.092-0.983 0.277-0.237 0.182-0.401 0.384-0.492 0.607l-1.161-0.264c0.138-0.386 0.339-0.697 0.603-0.934 0.267-0.24 0.574-0.413 0.922-0.521 0.347-0.11 0.712-0.165 1.095-0.165 0.254 0 0.522 0.030 0.806 0.091 0.287 0.058 0.554 0.165 0.802 0.322 0.25 0.157 0.456 0.382 0.615 0.674 0.16 0.289 0.24 0.665 0.24 1.128v4.215h-1.207v-0.868h-0.049c-0.080 0.16-0.2 0.317-0.36 0.471s-0.365 0.282-0.615 0.384c-0.251 0.102-0.551 0.153-0.901 0.153zM73.213 19.512c0.342 0 0.634-0.067 0.876-0.202 0.245-0.135 0.431-0.311 0.558-0.529 0.129-0.22 0.194-0.456 0.194-0.707v-0.818c-0.044 0.044-0.129 0.085-0.256 0.124-0.124 0.036-0.266 0.067-0.426 0.095-0.159 0.025-0.315 0.048-0.467 0.070-0.151 0.019-0.278 0.036-0.38 0.050-0.24 0.030-0.459 0.081-0.657 0.153-0.196 0.072-0.353 0.175-0.471 0.31-0.116 0.132-0.174 0.309-0.174 0.529 0 0.306 0.113 0.537 0.339 0.694 0.226 0.154 0.514 0.231 0.863 0.231zM80.685 14.017v0.992h-3.467v-0.992h3.467zM78.148 12.496h1.236v6.004c0 0.24 0.036 0.42 0.107 0.541 0.072 0.118 0.164 0.2 0.277 0.244 0.116 0.041 0.241 0.062 0.376 0.062 0.1 0 0.186-0.007 0.26-0.021s0.132-0.025 0.174-0.033l0.223 1.021c-0.072 0.028-0.174 0.055-0.306 0.083-0.132 0.030-0.297 0.047-0.496 0.050-0.325 0.006-0.628-0.052-0.909-0.174s-0.508-0.308-0.681-0.562c-0.174-0.253-0.26-0.572-0.26-0.955v-6.26zM82.052 20.364v-6.347h1.236v6.347h-1.236zM82.676 13.037c-0.215 0-0.4-0.072-0.554-0.215-0.151-0.146-0.227-0.32-0.227-0.521 0-0.204 0.076-0.377 0.227-0.521 0.154-0.146 0.339-0.219 0.554-0.219s0.398 0.073 0.549 0.219c0.154 0.143 0.232 0.317 0.232 0.521 0 0.201-0.078 0.375-0.232 0.521-0.151 0.143-0.335 0.215-0.549 0.215zM87.623 20.492c-0.614 0-1.143-0.139-1.587-0.417-0.441-0.281-0.78-0.668-1.016-1.161s-0.356-1.058-0.356-1.694c0-0.645 0.121-1.213 0.364-1.707 0.242-0.496 0.584-0.883 1.025-1.161s0.96-0.417 1.558-0.417c0.482 0 0.912 0.090 1.289 0.269 0.377 0.176 0.681 0.424 0.913 0.744 0.234 0.32 0.373 0.693 0.417 1.12h-1.202c-0.066-0.298-0.217-0.554-0.455-0.769-0.234-0.215-0.548-0.322-0.942-0.322-0.345 0-0.647 0.091-0.905 0.273-0.256 0.179-0.456 0.435-0.599 0.769-0.143 0.331-0.215 0.722-0.215 1.174 0 0.463 0.071 0.862 0.211 1.198s0.339 0.596 0.595 0.781c0.259 0.184 0.564 0.277 0.913 0.277 0.234 0 0.446-0.043 0.636-0.128 0.193-0.088 0.353-0.214 0.483-0.376 0.132-0.163 0.225-0.358 0.277-0.587h1.202c-0.044 0.41-0.177 0.777-0.401 1.099s-0.521 0.576-0.897 0.76c-0.372 0.184-0.808 0.277-1.31 0.277z"></path>
</symbol>
<symbol id="icon-bathroom_text" viewBox="0 0 108 32">
<path fill="#f2f4f7" style="fill: var(--color1, #f2f4f7)" d="M16 0h75.636c8.837 0 16 7.163 16 16s-7.163 16-16 16h-75.636c-8.837 0-16-7.163-16-16s7.163-16 16-16z"></path>
<path fill="#101828" style="fill: var(--color2, #101828)" d="M19.645 9.455c0.436-0.459 0.718-0.727 0.718-0.727 0.099 0.33 0.212 0.644 0.337 0.944 0.738 1.769 1.884 3.045 2.906 4.182 1.191 1.325 2.211 2.461 2.211 3.965 0 1.447-0.575 2.834-1.598 3.857s-2.41 1.598-3.857 1.598c-1.447 0-2.834-0.575-3.857-1.598s-1.598-2.41-1.598-3.857c0-3.029 3.255-6.803 4.736-8.364zM20.021 10.383c-0.584 0.632-1.139 1.29-1.663 1.972-0.66 0.864-1.305 1.825-1.782 2.791-0.482 0.976-0.758 1.889-0.758 2.673 0 1.206 0.479 2.362 1.331 3.214s2.009 1.331 3.214 1.331c1.206 0 2.362-0.479 3.214-1.331s1.331-2.009 1.331-3.214c0-1.092-0.724-1.961-1.983-3.364l-0.027-0.029c-0.945-1.053-2.081-2.316-2.878-4.043z"></path>
<path fill="#101828" style="fill: var(--color2, #101828)" d="M17.23 15.796c0.745-1.492 1.561-2.503 1.903-2.845l0.644 0.644c-0.264 0.264-1.025 1.192-1.734 2.609l-0.813-0.407z"></path>
<path fill="#101828" style="fill: var(--color2, #101828)" d="M34.532 20.364v-8.463h3.099c0.601 0 1.098 0.099 1.492 0.298 0.394 0.196 0.689 0.461 0.884 0.798 0.196 0.333 0.293 0.709 0.293 1.128 0 0.353-0.065 0.65-0.194 0.893-0.129 0.24-0.303 0.432-0.521 0.579-0.215 0.143-0.452 0.248-0.711 0.314v0.083c0.281 0.014 0.555 0.105 0.822 0.273 0.27 0.165 0.493 0.401 0.669 0.707s0.264 0.678 0.264 1.116c0 0.433-0.102 0.821-0.306 1.165-0.201 0.342-0.512 0.613-0.934 0.814-0.422 0.198-0.96 0.298-1.616 0.298h-3.244zM35.809 19.269h1.843c0.612 0 1.050-0.118 1.314-0.355s0.397-0.533 0.397-0.888c0-0.267-0.068-0.512-0.202-0.736s-0.328-0.401-0.579-0.533c-0.248-0.132-0.543-0.198-0.884-0.198h-1.888v2.711zM35.809 15.562h1.711c0.286 0 0.544-0.055 0.773-0.165 0.231-0.11 0.415-0.264 0.55-0.463 0.138-0.201 0.207-0.438 0.207-0.711 0-0.35-0.123-0.643-0.368-0.88s-0.621-0.355-1.128-0.355h-1.744v2.574zM43.894 20.504c-0.402 0-0.766-0.074-1.091-0.223-0.325-0.152-0.583-0.371-0.773-0.657-0.187-0.287-0.281-0.638-0.281-1.054 0-0.358 0.069-0.653 0.207-0.884s0.324-0.415 0.558-0.55c0.234-0.135 0.496-0.237 0.785-0.306s0.584-0.121 0.884-0.157c0.38-0.044 0.689-0.080 0.926-0.107 0.237-0.030 0.409-0.078 0.517-0.145s0.161-0.174 0.161-0.322v-0.029c0-0.361-0.102-0.64-0.306-0.839-0.201-0.198-0.501-0.298-0.901-0.298-0.416 0-0.744 0.092-0.983 0.277-0.237 0.182-0.401 0.384-0.492 0.607l-1.161-0.264c0.138-0.386 0.339-0.697 0.603-0.934 0.267-0.24 0.574-0.413 0.922-0.521 0.347-0.11 0.712-0.165 1.095-0.165 0.253 0 0.522 0.030 0.806 0.091 0.286 0.058 0.554 0.165 0.802 0.322 0.251 0.157 0.456 0.382 0.616 0.674 0.16 0.289 0.24 0.665 0.24 1.128v4.215h-1.207v-0.868h-0.050c-0.080 0.16-0.2 0.317-0.359 0.471s-0.365 0.282-0.616 0.384c-0.251 0.102-0.551 0.153-0.901 0.153zM44.162 19.512c0.342 0 0.634-0.067 0.876-0.202 0.245-0.135 0.431-0.311 0.558-0.529 0.129-0.22 0.194-0.456 0.194-0.707v-0.818c-0.044 0.044-0.129 0.085-0.256 0.124-0.124 0.036-0.266 0.067-0.426 0.095-0.16 0.025-0.315 0.048-0.467 0.070-0.151 0.019-0.278 0.036-0.38 0.050-0.24 0.030-0.459 0.081-0.657 0.153-0.196 0.072-0.353 0.175-0.471 0.31-0.116 0.132-0.174 0.309-0.174 0.529 0 0.306 0.113 0.537 0.339 0.694 0.226 0.154 0.514 0.231 0.864 0.231zM51.634 14.017v0.992h-3.467v-0.992h3.467zM49.097 12.496h1.236v6.004c0 0.24 0.036 0.42 0.107 0.541 0.072 0.118 0.164 0.2 0.277 0.244 0.116 0.041 0.241 0.062 0.376 0.062 0.099 0 0.186-0.007 0.26-0.021s0.132-0.025 0.174-0.033l0.223 1.021c-0.072 0.028-0.174 0.055-0.306 0.083-0.132 0.030-0.298 0.047-0.496 0.050-0.325 0.006-0.628-0.052-0.909-0.174s-0.508-0.308-0.682-0.562c-0.174-0.253-0.26-0.572-0.26-0.955v-6.26zM54.373 16.595v3.769h-1.236v-8.463h1.219v3.149h0.078c0.149-0.342 0.376-0.613 0.682-0.814s0.705-0.302 1.198-0.302c0.435 0 0.816 0.090 1.141 0.269 0.328 0.179 0.581 0.446 0.76 0.802 0.182 0.353 0.273 0.793 0.273 1.322v4.037h-1.236v-3.888c0-0.466-0.12-0.826-0.359-1.083-0.24-0.259-0.573-0.388-1-0.388-0.292 0-0.554 0.062-0.785 0.186-0.229 0.124-0.409 0.306-0.541 0.545-0.129 0.237-0.194 0.523-0.194 0.86zM60.137 20.364v-6.347h1.194v1.008h0.066c0.116-0.342 0.32-0.61 0.612-0.806 0.295-0.198 0.628-0.298 1-0.298 0.077 0 0.168 0.003 0.273 0.008 0.107 0.006 0.191 0.012 0.252 0.021v1.182c-0.050-0.014-0.138-0.029-0.264-0.045-0.127-0.019-0.253-0.029-0.38-0.029-0.292 0-0.552 0.062-0.781 0.186-0.226 0.121-0.405 0.291-0.537 0.508-0.132 0.215-0.198 0.46-0.198 0.736v3.876h-1.236zM67.050 20.492c-0.595 0-1.114-0.136-1.558-0.409s-0.788-0.654-1.033-1.145c-0.245-0.49-0.368-1.063-0.368-1.719 0-0.658 0.123-1.234 0.368-1.727s0.59-0.876 1.033-1.149c0.444-0.273 0.963-0.409 1.558-0.409s1.114 0.136 1.558 0.409c0.444 0.273 0.788 0.656 1.033 1.149s0.368 1.069 0.368 1.727c0 0.656-0.123 1.229-0.368 1.719s-0.59 0.872-1.033 1.145c-0.444 0.273-0.963 0.409-1.558 0.409zM67.054 19.455c0.386 0 0.705-0.102 0.959-0.306s0.441-0.475 0.562-0.814c0.124-0.339 0.186-0.712 0.186-1.12 0-0.405-0.062-0.777-0.186-1.116-0.121-0.342-0.309-0.616-0.562-0.822s-0.573-0.31-0.959-0.31c-0.388 0-0.711 0.103-0.967 0.31-0.253 0.207-0.442 0.481-0.566 0.822-0.121 0.339-0.182 0.711-0.182 1.116 0 0.408 0.061 0.781 0.182 1.12 0.124 0.339 0.313 0.61 0.566 0.814 0.256 0.204 0.579 0.306 0.967 0.306zM74.061 20.492c-0.595 0-1.114-0.136-1.558-0.409s-0.788-0.654-1.033-1.145c-0.245-0.49-0.368-1.063-0.368-1.719 0-0.658 0.123-1.234 0.368-1.727s0.59-0.876 1.033-1.149c0.444-0.273 0.963-0.409 1.558-0.409s1.114 0.136 1.558 0.409c0.444 0.273 0.788 0.656 1.033 1.149s0.368 1.069 0.368 1.727c0 0.656-0.123 1.229-0.368 1.719s-0.589 0.872-1.033 1.145-0.963 0.409-1.558 0.409zM74.065 19.455c0.386 0 0.705-0.102 0.959-0.306s0.441-0.475 0.561-0.814c0.124-0.339 0.186-0.712 0.186-1.12 0-0.405-0.062-0.777-0.186-1.116-0.121-0.342-0.308-0.616-0.561-0.822s-0.573-0.31-0.959-0.31c-0.388 0-0.711 0.103-0.967 0.31-0.254 0.207-0.442 0.481-0.566 0.822-0.121 0.339-0.182 0.711-0.182 1.116 0 0.408 0.061 0.781 0.182 1.12 0.124 0.339 0.312 0.61 0.566 0.814 0.256 0.204 0.578 0.306 0.967 0.306zM78.399 20.364v-6.347h1.186v1.033h0.079c0.132-0.35 0.348-0.623 0.649-0.818 0.3-0.198 0.66-0.298 1.079-0.298 0.424 0 0.78 0.099 1.066 0.298 0.289 0.198 0.503 0.471 0.641 0.818h0.065c0.152-0.339 0.393-0.609 0.724-0.81 0.33-0.204 0.724-0.306 1.182-0.306 0.575 0 1.045 0.18 1.409 0.541 0.367 0.361 0.55 0.905 0.55 1.632v4.256h-1.236v-4.14c0-0.43-0.117-0.741-0.351-0.934s-0.513-0.289-0.839-0.289c-0.402 0-0.715 0.124-0.938 0.372-0.223 0.245-0.335 0.561-0.335 0.946v4.045h-1.231v-4.219c0-0.344-0.108-0.621-0.323-0.831s-0.495-0.314-0.839-0.314c-0.234 0-0.45 0.062-0.649 0.186-0.196 0.121-0.354 0.291-0.476 0.508-0.118 0.218-0.177 0.47-0.177 0.756v3.913h-1.236z"></path>
</symbol>
<symbol id="icon-bi_grid" viewBox="0 0 32 32">
<path d="M2 5c0-0.796 0.316-1.559 0.879-2.121s1.326-0.879 2.121-0.879h6c0.796 0 1.559 0.316 2.121 0.879s0.879 1.326 0.879 2.121v6c0 0.796-0.316 1.559-0.879 2.121s-1.326 0.879-2.121 0.879h-6c-0.796 0-1.559-0.316-2.121-0.879s-0.879-1.326-0.879-2.121v-6zM5 4c-0.265 0-0.52 0.105-0.707 0.293s-0.293 0.442-0.293 0.707v6c0 0.265 0.105 0.52 0.293 0.707s0.442 0.293 0.707 0.293h6c0.265 0 0.52-0.105 0.707-0.293s0.293-0.442 0.293-0.707v-6c0-0.265-0.105-0.52-0.293-0.707s-0.442-0.293-0.707-0.293h-6zM18 5c0-0.796 0.316-1.559 0.879-2.121s1.326-0.879 2.121-0.879h6c0.796 0 1.559 0.316 2.121 0.879s0.879 1.326 0.879 2.121v6c0 0.796-0.316 1.559-0.879 2.121s-1.326 0.879-2.121 0.879h-6c-0.796 0-1.559-0.316-2.121-0.879s-0.879-1.326-0.879-2.121v-6zM21 4c-0.265 0-0.52 0.105-0.707 0.293s-0.293 0.442-0.293 0.707v6c0 0.265 0.105 0.52 0.293 0.707s0.442 0.293 0.707 0.293h6c0.265 0 0.52-0.105 0.707-0.293s0.293-0.442 0.293-0.707v-6c0-0.265-0.105-0.52-0.293-0.707s-0.442-0.293-0.707-0.293h-6zM2 21c0-0.796 0.316-1.559 0.879-2.121s1.326-0.879 2.121-0.879h6c0.796 0 1.559 0.316 2.121 0.879s0.879 1.326 0.879 2.121v6c0 0.796-0.316 1.559-0.879 2.121s-1.326 0.879-2.121 0.879h-6c-0.796 0-1.559-0.316-2.121-0.879s-0.879-1.326-0.879-2.121v-6zM5 20c-0.265 0-0.52 0.105-0.707 0.293s-0.293 0.442-0.293 0.707v6c0 0.265 0.105 0.52 0.293 0.707s0.442 0.293 0.707 0.293h6c0.265 0 0.52-0.105 0.707-0.293s0.293-0.442 0.293-0.707v-6c0-0.265-0.105-0.52-0.293-0.707s-0.442-0.293-0.707-0.293h-6zM18 21c0-0.796 0.316-1.559 0.879-2.121s1.326-0.879 2.121-0.879h6c0.796 0 1.559 0.316 2.121 0.879s0.879 1.326 0.879 2.121v6c0 0.796-0.316 1.559-0.879 2.121s-1.326 0.879-2.121 0.879h-6c-0.796 0-1.559-0.316-2.121-0.879s-0.879-1.326-0.879-2.121v-6zM21 20c-0.265 0-0.52 0.105-0.707 0.293s-0.293 0.442-0.293 0.707v6c0 0.265 0.105 0.52 0.293 0.707s0.442 0.293 0.707 0.293h6c0.265 0 0.52-0.105 0.707-0.293s0.293-0.442 0.293-0.707v-6c0-0.265-0.105-0.52-0.293-0.707s-0.442-0.293-0.707-0.293h-6z"></path>
</symbol>
<symbol id="icon-bi_grid-1x2" viewBox="0 0 32 32">
<path d="M12 2h-10v28h10v-28zM30 2h-10v10h10v-10zM30 20v10h-10v-10h10zM0 2c0-0.53 0.211-1.039 0.586-1.414s0.884-0.586 1.414-0.586h10c0.53 0 1.039 0.211 1.414 0.586s0.586 0.884 0.586 1.414v28c0 0.53-0.211 1.039-0.586 1.414s-0.884 0.586-1.414 0.586h-10c-0.53 0-1.039-0.211-1.414-0.586s-0.586-0.884-0.586-1.414v-28zM18 2c0-0.53 0.211-1.039 0.586-1.414s0.884-0.586 1.414-0.586h10c0.53 0 1.039 0.211 1.414 0.586s0.586 0.884 0.586 1.414v10c0 0.53-0.211 1.039-0.586 1.414s-0.884 0.586-1.414 0.586h-10c-0.53 0-1.039-0.211-1.414-0.586s-0.586-0.884-0.586-1.414v-10zM20 18c-0.53 0-1.039 0.211-1.414 0.586s-0.586 0.884-0.586 1.414v10c0 0.53 0.211 1.039 0.586 1.414s0.884 0.586 1.414 0.586h10c0.53 0 1.039-0.211 1.414-0.586s0.586-0.884 0.586-1.414v-10c0-0.53-0.211-1.039-0.586-1.414s-0.884-0.586-1.414-0.586h-10z"></path>
</symbol>
<symbol id="icon-bi_grid-3x3-gap" viewBox="0 0 32 32">
<path d="M8 4v4h-4v-4h4zM10 28v-4c0-0.53-0.211-1.039-0.586-1.414s-0.884-0.586-1.414-0.586h-4c-0.53 0-1.039 0.211-1.414 0.586s-0.586 0.884-0.586 1.414v4c0 0.53 0.211 1.039 0.586 1.414s0.884 0.586 1.414 0.586h4c0.53 0 1.039-0.211 1.414-0.586s0.586-0.884 0.586-1.414zM10 18v-4c0-0.53-0.211-1.039-0.586-1.414s-0.884-0.586-1.414-0.586h-4c-0.53 0-1.039 0.211-1.414 0.586s-0.586 0.884-0.586 1.414v4c0 0.53 0.211 1.039 0.586 1.414s0.884 0.586 1.414 0.586h4c0.53 0 1.039-0.211 1.414-0.586s0.586-0.884 0.586-1.414zM10 8v-4c0-0.53-0.211-1.039-0.586-1.414s-0.884-0.586-1.414-0.586h-4c-0.53 0-1.039 0.211-1.414 0.586s-0.586 0.884-0.586 1.414v4c0 0.53 0.211 1.039 0.586 1.414s0.884 0.586 1.414 0.586h4c0.53 0 1.039-0.211 1.414-0.586s0.586-0.884 0.586-1.414zM20 28v-4c0-0.53-0.211-1.039-0.586-1.414s-0.884-0.586-1.414-0.586h-4c-0.53 0-1.039 0.211-1.414 0.586s-0.586 0.884-0.586 1.414v4c0 0.53 0.211 1.039 0.586 1.414s0.884 0.586 1.414 0.586h4c0.53 0 1.039-0.211 1.414-0.586s0.586-0.884 0.586-1.414zM20 18v-4c0-0.53-0.211-1.039-0.586-1.414s-0.884-0.586-1.414-0.586h-4c-0.53 0-1.039 0.211-1.414 0.586s-0.586 0.884-0.586 1.414v4c0 0.53 0.211 1.039 0.586 1.414s0.884 0.586 1.414 0.586h4c0.53 0 1.039-0.211 1.414-0.586s0.586-0.884 0.586-1.414zM20 8v-4c0-0.53-0.211-1.039-0.586-1.414s-0.884-0.586-1.414-0.586h-4c-0.53 0-1.039 0.211-1.414 0.586s-0.586 0.884-0.586 1.414v4c0 0.53 0.211 1.039 0.586 1.414s0.884 0.586 1.414 0.586h4c0.53 0 1.039-0.211 1.414-0.586s0.586-0.884 0.586-1.414zM18 4v4h-4v-4h4zM28 4v4h-4v-4h4zM8 14v4h-4v-4h4zM18 14v4h-4v-4h4zM28 14h-4v4h4v-4zM8 24v4h-4v-4h4zM18 24v4h-4v-4h4zM28 24v4h-4v-4h4zM24 2c-0.53 0-1.039 0.211-1.414 0.586s-0.586 0.884-0.586 1.414v4c0 0.53 0.211 1.039 0.586 1.414s0.884 0.586 1.414 0.586h4c0.53 0 1.039-0.211 1.414-0.586s0.586-0.884 0.586-1.414v-4c0-0.53-0.211-1.039-0.586-1.414s-0.884-0.586-1.414-0.586h-4zM22 14c0-0.53 0.211-1.039 0.586-1.414s0.884-0.586 1.414-0.586h4c0.53 0 1.039 0.211 1.414 0.586s0.586 0.884 0.586 1.414v4c0 0.53-0.211 1.039-0.586 1.414s-0.884 0.586-1.414 0.586h-4c-0.53 0-1.039-0.211-1.414-0.586s-0.586-0.884-0.586-1.414v-4zM24 22c-0.53 0-1.039 0.211-1.414 0.586s-0.586 0.884-0.586 1.414v4c0 0.53 0.211 1.039 0.586 1.414s0.884 0.586 1.414 0.586h4c0.53 0 1.039-0.211 1.414-0.586s0.586-0.884 0.586-1.414v-4c0-0.53-0.211-1.039-0.586-1.414s-0.884-0.586-1.414-0.586h-4z"></path>
</symbol>
<symbol id="icon-cup" viewBox="0 0 32 32">
<path d="M1 12c-0.15 0-0.297 0.034-0.432 0.098s-0.254 0.159-0.347 0.276c-0.094 0.117-0.16 0.253-0.194 0.399s-0.035 0.297-0.003 0.443l3.304 14.868c0.247 1.11 0.865 2.104 1.752 2.816s1.991 1.1 3.128 1.1h11.584c1.138-0 2.241-0.388 3.128-1.1s1.505-1.705 1.752-2.816l0.262-1.18c1.53 0.286 3.111-0.033 4.41-0.891s2.213-2.186 2.551-3.706c0.337-1.519 0.071-3.11-0.742-4.437s-2.111-2.285-3.618-2.674l0.442-1.98c0.032-0.146 0.031-0.298-0.003-0.443s-0.1-0.282-0.194-0.399c-0.094-0.117-0.212-0.211-0.347-0.276s-0.283-0.098-0.432-0.098h-26zM26 25c-0.212 0-0.423-0.017-0.632-0.050l1.734-7.796c0.925 0.268 1.722 0.86 2.246 1.669s0.738 1.778 0.604 2.732c-0.134 0.954-0.607 1.827-1.333 2.46s-1.656 0.983-2.619 0.985zM5.28 27.65l-3.034-13.65h23.508l-3.034 13.65c-0.148 0.666-0.519 1.262-1.051 1.69s-1.195 0.66-1.877 0.66h-11.584c-0.683-0-1.345-0.233-1.877-0.66s-0.903-1.023-1.051-1.69z"></path>
<path d="M8.8 1.6l-0.006 0.008-0.028 0.038c-0.146 0.2-0.282 0.407-0.408 0.62-0.107 0.171-0.202 0.349-0.282 0.534-0.052 0.12-0.068 0.184-0.074 0.206v0.008c0.023 0.177 0.085 0.346 0.182 0.496 0.15 0.266 0.356 0.544 0.616 0.89l0.020 0.024c0.236 0.316 0.52 0.694 0.74 1.086 0.224 0.4 0.44 0.91 0.44 1.49 0 0.376-0.13 0.736-0.238 0.988-0.116 0.268-0.251 0.527-0.404 0.776-0.157 0.262-0.326 0.517-0.506 0.764l-0.036 0.050-0.010 0.016-0.004 0.004c-0.159 0.212-0.396 0.353-0.658 0.391s-0.529-0.030-0.742-0.189-0.353-0.396-0.391-0.658c-0.038-0.263 0.030-0.529 0.189-0.742l0.006-0.008 0.028-0.038c0.146-0.2 0.282-0.407 0.408-0.62 0.107-0.171 0.202-0.349 0.282-0.534 0.052-0.12 0.068-0.184 0.074-0.206-0.021-0.179-0.083-0.352-0.18-0.504-0.186-0.31-0.392-0.608-0.618-0.89l-0.020-0.024c-0.27-0.345-0.517-0.708-0.74-1.086-0.272-0.451-0.424-0.964-0.44-1.49 0-0.376 0.13-0.736 0.238-0.988 0.118-0.276 0.268-0.548 0.404-0.776 0.159-0.261 0.328-0.516 0.506-0.764l0.050-0.070c0.159-0.212 0.396-0.353 0.658-0.391s0.529 0.030 0.742 0.189c0.212 0.159 0.353 0.396 0.391 0.658s-0.030 0.529-0.189 0.742zM14.8 1.6l-0.006 0.008-0.028 0.038c-0.146 0.2-0.282 0.407-0.408 0.62-0.107 0.171-0.202 0.349-0.282 0.534-0.052 0.12-0.068 0.184-0.074 0.206v0.008c0.023 0.177 0.085 0.346 0.182 0.496 0.15 0.266 0.356 0.544 0.616 0.89l0.020 0.024c0.236 0.316 0.52 0.694 0.74 1.086 0.224 0.4 0.44 0.91 0.44 1.49 0 0.376-0.13 0.736-0.238 0.988-0.116 0.268-0.251 0.527-0.404 0.776-0.157 0.262-0.326 0.517-0.506 0.764l-0.036 0.050-0.010 0.016-0.004 0.004c-0.159 0.212-0.396 0.353-0.658 0.391s-0.529-0.030-0.742-0.189-0.353-0.396-0.391-0.658c-0.038-0.263 0.030-0.529 0.189-0.742l0.006-0.008 0.028-0.038c0.146-0.2 0.282-0.407 0.408-0.62 0.107-0.171 0.202-0.349 0.282-0.534 0.052-0.12 0.068-0.184 0.074-0.206-0.021-0.179-0.083-0.352-0.18-0.504-0.186-0.31-0.392-0.608-0.618-0.89l-0.020-0.024c-0.27-0.345-0.517-0.708-0.74-1.086-0.272-0.451-0.424-0.964-0.44-1.49 0-0.376 0.13-0.736 0.238-0.988 0.118-0.276 0.268-0.548 0.404-0.776 0.159-0.261 0.328-0.516 0.506-0.764l0.050-0.070c0.159-0.212 0.396-0.353 0.658-0.391s0.529 0.030 0.742 0.189 0.353 0.396 0.391 0.658c0.038 0.263-0.030 0.529-0.189 0.742zM20.8 1.6l-0.006 0.008-0.028 0.038c-0.145 0.2-0.282 0.407-0.408 0.62-0.107 0.171-0.202 0.349-0.282 0.534-0.052 0.12-0.068 0.184-0.074 0.206v0.008c0.023 0.177 0.085 0.346 0.182 0.496 0.15 0.266 0.356 0.544 0.616 0.89l0.020 0.024c0.236 0.316 0.52 0.694 0.74 1.086 0.224 0.4 0.44 0.91 0.44 1.49 0 0.376-0.13 0.736-0.238 0.988-0.116 0.268-0.251 0.527-0.404 0.776-0.156 0.262-0.324 0.517-0.504 0.764l-0.038 0.050-0.010 0.016-0.004 0.004c-0.159 0.212-0.396 0.353-0.658 0.391s-0.529-0.030-0.742-0.189-0.353-0.396-0.391-0.658c-0.038-0.263 0.030-0.529 0.189-0.742l0.006-0.008 0.028-0.038c0.145-0.2 0.282-0.407 0.408-0.62 0.107-0.171 0.202-0.349 0.282-0.534 0.052-0.12 0.068-0.184 0.074-0.206-0.021-0.179-0.083-0.352-0.18-0.504-0.186-0.31-0.392-0.608-0.618-0.89l-0.020-0.024c-0.27-0.345-0.517-0.708-0.74-1.086-0.272-0.451-0.424-0.964-0.44-1.49 0-0.376 0.13-0.736 0.238-0.988 0.118-0.276 0.268-0.548 0.404-0.776 0.159-0.261 0.328-0.516 0.506-0.764l0.050-0.070c0.159-0.212 0.396-0.353 0.658-0.391s0.529 0.030 0.742 0.189 0.353 0.396 0.391 0.658c0.038 0.263-0.030 0.529-0.189 0.742z"></path>
</symbol>
<symbol id="icon-diagram" viewBox="0 0 32 32">
<path d="M12 7c0-0.796 0.316-1.559 0.879-2.121s1.326-0.879 2.121-0.879h2c0.796 0 1.559 0.316 2.121 0.879s0.879 1.326 0.879 2.121v2c0 0.796-0.316 1.559-0.879 2.121s-1.326 0.879-2.121 0.879v2h11c0.265 0 0.52 0.105 0.707 0.293s0.293 0.442 0.293 0.707v2c0 0.265-0.105 0.52-0.293 0.707s-0.442 0.293-0.707 0.293c-0.265 0-0.52-0.105-0.707-0.293s-0.293-0.442-0.293-0.707v-1h-10v1c0 0.265-0.105 0.52-0.293 0.707s-0.442 0.293-0.707 0.293c-0.265 0-0.52-0.105-0.707-0.293s-0.293-0.442-0.293-0.707v-1h-10v1c0 0.265-0.105 0.52-0.293 0.707s-0.442 0.293-0.707 0.293c-0.265 0-0.52-0.105-0.707-0.293s-0.293-0.442-0.293-0.707v-2c0-0.265 0.105-0.52 0.293-0.707s0.442-0.293 0.707-0.293h11v-2c-0.796 0-1.559-0.316-2.121-0.879s-0.879-1.326-0.879-2.121v-2zM17 10c0.265 0 0.52-0.105 0.707-0.293s0.293-0.442 0.293-0.707v-2c0-0.265-0.105-0.52-0.293-0.707s-0.442-0.293-0.707-0.293h-2c-0.265 0-0.52 0.105-0.707 0.293s-0.293 0.442-0.293 0.707v2c0 0.265 0.105 0.52 0.293 0.707s0.442 0.293 0.707 0.293h2zM0 23c0-0.796 0.316-1.559 0.879-2.121s1.326-0.879 2.121-0.879h2c0.796 0 1.559 0.316 2.121 0.879s0.879 1.326 0.879 2.121v2c0 0.796-0.316 1.559-0.879 2.121s-1.326 0.879-2.121 0.879h-2c-0.796 0-1.559-0.316-2.121-0.879s-0.879-1.326-0.879-2.121v-2zM3 22c-0.265 0-0.52 0.105-0.707 0.293s-0.293 0.442-0.293 0.707v2c0 0.265 0.105 0.52 0.293 0.707s0.442 0.293 0.707 0.293h2c0.265 0 0.52-0.105 0.707-0.293s0.293-0.442 0.293-0.707v-2c0-0.265-0.105-0.52-0.293-0.707s-0.442-0.293-0.707-0.293h-2zM12 23c0-0.796 0.316-1.559 0.879-2.121s1.326-0.879 2.121-0.879h2c0.796 0 1.559 0.316 2.121 0.879s0.879 1.326 0.879 2.121v2c0 0.796-0.316 1.559-0.879 2.121s-1.326 0.879-2.121 0.879h-2c-0.796 0-1.559-0.316-2.121-0.879s-0.879-1.326-0.879-2.121v-2zM15 22c-0.265 0-0.52 0.105-0.707 0.293s-0.293 0.442-0.293 0.707v2c0 0.265 0.105 0.52 0.293 0.707s0.442 0.293 0.707 0.293h2c0.265 0 0.52-0.105 0.707-0.293s0.293-0.442 0.293-0.707v-2c0-0.265-0.105-0.52-0.293-0.707s-0.442-0.293-0.707-0.293h-2zM24 23c0-0.796 0.316-1.559 0.879-2.121s1.326-0.879 2.121-0.879h2c0.796 0 1.559 0.316 2.121 0.879s0.879 1.326 0.879 2.121v2c0 0.796-0.316 1.559-0.879 2.121s-1.326 0.879-2.121 0.879h-2c-0.796 0-1.559-0.316-2.121-0.879s-0.879-1.326-0.879-2.121v-2zM27 22c-0.265 0-0.52 0.105-0.707 0.293s-0.293 0.442-0.293 0.707v2c0 0.265 0.105 0.52 0.293 0.707s0.442 0.293 0.707 0.293h2c0.265 0 0.52-0.105 0.707-0.293s0.293-0.442 0.293-0.707v-2c0-0.265-0.105-0.52-0.293-0.707s-0.442-0.293-0.707-0.293h-2z"></path>
</symbol>
<symbol id="icon-drop" viewBox="0 0 32 32">
<path d="M14.42 1.6c0.96-1.010 1.58-1.6 1.58-1.6 0.219 0.725 0.466 1.417 0.742 2.076 1.624 3.892 4.146 6.7 6.394 9.2 2.62 2.916 4.864 5.414 4.864 8.724 0 3.183-1.264 6.235-3.515 8.485s-5.303 3.515-8.485 3.515-6.235-1.264-8.485-3.515c-2.25-2.25-3.515-5.303-3.515-8.485 0-6.664 7.16-14.966 10.42-18.4zM15.246 3.642c-1.285 1.389-2.505 2.837-3.658 4.338-1.452 1.9-2.872 4.016-3.92 6.14-1.060 2.146-1.668 4.156-1.668 5.88 0 2.652 1.054 5.196 2.929 7.071s4.419 2.929 7.071 2.929 5.196-1.054 7.071-2.929c1.875-1.875 2.929-4.419 2.929-7.071 0-2.402-1.592-4.314-4.362-7.4l-0.060-0.064c-2.078-2.316-4.578-5.094-6.332-8.894z"></path>
<path d="M9.106 15.552c1.64-3.282 3.434-5.506 4.186-6.26l1.416 1.416c-0.58 0.58-2.256 2.622-3.814 5.74l-1.788-0.896z"></path>
</symbol>
<symbol id="icon-heart_empty" viewBox="0 0 32 32">
<path d="M16 13.139l-1.788-3.578c-0.444-0.886-1.214-2.16-2.304-3.19-1.072-1.014-2.356-1.704-3.908-1.704-3.352 0-6 2.652-6 5.84 0 2.422 1.108 4.132 3.736 6.74 0.674 0.668 1.442 1.39 2.292 2.186 2.216 2.080 4.972 4.668 7.972 8.128 3-3.46 5.756-6.048 7.972-8.128 0.85-0.796 1.62-1.52 2.292-2.186 2.628-2.608 3.736-4.318 3.736-6.74 0-3.188-2.648-5.84-6-5.84-1.554 0-2.836 0.69-3.908 1.704-1.090 1.030-1.86 2.304-2.304 3.19l-1.788 3.578zM16.784 29.723c-0.096 0.114-0.216 0.206-0.352 0.269s-0.283 0.095-0.432 0.095-0.297-0.033-0.432-0.095c-0.135-0.063-0.255-0.155-0.352-0.269-3.202-3.804-6.1-6.524-8.486-8.762-4.13-3.878-6.73-6.316-6.73-10.454 0-4.33 3.58-7.84 8-7.84 3.2 0 5.438 2.1 6.808 4.016 0.52 0.73 0.916 1.432 1.192 1.984 0.346-0.691 0.745-1.354 1.192-1.984 1.37-1.918 3.608-4.016 6.808-4.016 4.42 0 8 3.51 8 7.84 0 4.138-2.6 6.576-6.73 10.454-2.386 2.24-5.284 4.962-8.486 8.762z"></path>
</symbol>
<symbol id="icon-heart_full" viewBox="0 0 32 32">
<path fill="#e44848" style="fill: var(--color3, #e44848)" d="M16 13.139l-1.788-3.578c-0.444-0.886-1.214-2.16-2.304-3.19-1.072-1.014-2.356-1.704-3.908-1.704-3.352 0-6 2.652-6 5.84 0 2.422 1.108 4.132 3.736 6.74 0.674 0.668 1.442 1.39 2.292 2.186 2.216 2.080 4.972 4.668 7.972 8.128 3-3.46 5.756-6.048 7.972-8.128 0.85-0.796 1.62-1.52 2.292-2.186 2.628-2.608 3.736-4.318 3.736-6.74 0-3.188-2.648-5.84-6-5.84-1.554 0-2.836 0.69-3.908 1.704-1.090 1.030-1.86 2.304-2.304 3.19l-1.788 3.578zM16.784 29.723c-0.096 0.114-0.216 0.206-0.352 0.269s-0.283 0.095-0.432 0.095-0.297-0.033-0.432-0.095c-0.135-0.063-0.255-0.155-0.352-0.269-3.202-3.804-6.1-6.524-8.486-8.762-4.13-3.878-6.73-6.316-6.73-10.454 0-4.33 3.58-7.84 8-7.84 3.2 0 5.438 2.1 6.808 4.016 0.52 0.73 0.916 1.432 1.192 1.984 0.346-0.691 0.745-1.354 1.192-1.984 1.37-1.918 3.608-4.016 6.808-4.016 4.42 0 8 3.51 8 7.84 0 4.138-2.6 6.576-6.73 10.454-2.386 2.24-5.284 4.962-8.486 8.762z"></path>
</symbol>
<symbol id="icon-kitchen_text" viewBox="0 0 89 32">
<path fill="#f2f4f7" style="fill: var(--color1, #f2f4f7)" d="M16 0h57.455c8.837 0 16 7.163 16 16s-7.163 16-16 16h-57.455c-8.837 0-16-7.163-16-16s7.163-16 16-16z"></path>
<path fill="#101828" style="fill: var(--color2, #101828)" d="M13.545 14.182c-0.068 0-0.135 0.015-0.197 0.045s-0.115 0.072-0.158 0.125c-0.043 0.053-0.073 0.115-0.088 0.181s-0.016 0.135-0.001 0.202l1.502 6.758c0.112 0.505 0.393 0.956 0.796 1.28s0.905 0.5 1.422 0.5h5.265c0.517-0 1.019-0.177 1.422-0.5s0.684-0.775 0.796-1.28l0.119-0.536c0.695 0.13 1.414-0.015 2.004-0.405s1.006-0.994 1.159-1.684 0.032-1.414-0.337-2.017c-0.37-0.603-0.959-1.039-1.645-1.215l0.201-0.9c0.015-0.066 0.014-0.135-0.001-0.202s-0.046-0.128-0.088-0.181c-0.043-0.053-0.096-0.096-0.158-0.125s-0.128-0.045-0.197-0.045h-11.818zM24.909 20.091c-0.096 0-0.192-0.008-0.287-0.023l0.788-3.544c0.421 0.122 0.783 0.391 1.021 0.759s0.335 0.808 0.274 1.242c-0.061 0.433-0.276 0.83-0.606 1.118s-0.753 0.447-1.19 0.448zM15.491 21.295l-1.379-6.204h10.685l-1.379 6.204c-0.067 0.303-0.236 0.574-0.478 0.768s-0.543 0.3-0.853 0.3h-5.265c-0.31-0-0.611-0.106-0.853-0.3s-0.41-0.465-0.478-0.768z"></path>
<path fill="#101828" style="fill: var(--color2, #101828)" d="M17.091 9.455l-0.003 0.004-0.013 0.017c-0.066 0.091-0.128 0.185-0.185 0.282-0.049 0.078-0.092 0.159-0.128 0.243-0.024 0.055-0.031 0.084-0.034 0.094v0.004c0.011 0.080 0.039 0.157 0.083 0.225 0.068 0.121 0.162 0.247 0.28 0.405l0.009 0.011c0.107 0.144 0.236 0.315 0.336 0.494 0.102 0.182 0.2 0.414 0.2 0.677 0 0.171-0.059 0.335-0.108 0.449-0.053 0.122-0.114 0.24-0.184 0.353-0.071 0.119-0.148 0.235-0.23 0.347l-0.016 0.023-0.005 0.007-0.002 0.002c-0.072 0.097-0.18 0.161-0.299 0.178s-0.241-0.014-0.337-0.086c-0.096-0.072-0.16-0.18-0.178-0.299s0.014-0.241 0.086-0.337l0.015-0.021c0.066-0.091 0.128-0.185 0.185-0.282 0.049-0.078 0.092-0.159 0.128-0.243 0.024-0.055 0.031-0.084 0.034-0.094-0.010-0.082-0.038-0.16-0.082-0.229-0.084-0.141-0.178-0.276-0.281-0.405l-0.009-0.011c-0.123-0.157-0.235-0.322-0.336-0.494-0.124-0.205-0.193-0.438-0.2-0.677 0-0.171 0.059-0.335 0.108-0.449 0.054-0.125 0.122-0.249 0.184-0.353 0.072-0.119 0.149-0.235 0.23-0.347l0.023-0.032c0.072-0.097 0.18-0.161 0.299-0.178s0.241 0.014 0.337 0.086c0.097 0.072 0.16 0.18 0.178 0.299s-0.014 0.241-0.086 0.337zM19.818 9.455l-0.003 0.004-0.013 0.017c-0.066 0.091-0.128 0.185-0.185 0.282-0.049 0.078-0.092 0.159-0.128 0.243-0.024 0.055-0.031 0.084-0.034 0.094v0.004c0.011 0.080 0.039 0.157 0.083 0.225 0.068 0.121 0.162 0.247 0.28 0.405l0.009 0.011c0.107 0.144 0.236 0.315 0.336 0.494 0.102 0.182 0.2 0.414 0.2 0.677 0 0.171-0.059 0.335-0.108 0.449-0.053 0.122-0.114 0.24-0.184 0.353-0.071 0.119-0.148 0.235-0.23 0.347l-0.016 0.023-0.005 0.007-0.002 0.002c-0.072 0.097-0.18 0.161-0.299 0.178s-0.241-0.014-0.337-0.086c-0.097-0.072-0.16-0.18-0.178-0.299s0.014-0.241 0.086-0.337l0.003-0.004 0.013-0.017c0.066-0.091 0.128-0.185 0.185-0.282 0.049-0.078 0.092-0.159 0.128-0.243 0.024-0.055 0.031-0.084 0.034-0.094-0.010-0.082-0.038-0.16-0.082-0.229-0.084-0.141-0.178-0.276-0.281-0.405l-0.009-0.011c-0.123-0.157-0.235-0.322-0.336-0.494-0.124-0.205-0.193-0.438-0.2-0.677 0-0.171 0.059-0.335 0.108-0.449 0.054-0.125 0.122-0.249 0.184-0.353 0.072-0.119 0.149-0.235 0.23-0.347l0.023-0.032c0.072-0.097 0.18-0.161 0.299-0.178s0.241 0.014 0.337 0.086c0.097 0.072 0.16 0.18 0.178 0.299s-0.014 0.241-0.086 0.337zM22.545 9.455l-0.003 0.004-0.013 0.017c-0.066 0.091-0.128 0.185-0.185 0.282-0.049 0.078-0.092 0.159-0.128 0.243-0.024 0.055-0.031 0.084-0.034 0.094v0.004c0.010 0.080 0.039 0.157 0.083 0.225 0.068 0.121 0.162 0.247 0.28 0.405l0.009 0.011c0.107 0.144 0.236 0.315 0.336 0.494 0.102 0.182 0.2 0.414 0.2 0.677 0 0.171-0.059 0.335-0.108 0.449-0.052 0.122-0.114 0.24-0.184 0.353-0.071 0.119-0.148 0.235-0.229 0.347l-0.017 0.023-0.005 0.007-0.002 0.002c-0.072 0.097-0.18 0.161-0.299 0.178s-0.241-0.014-0.337-0.086c-0.097-0.072-0.16-0.18-0.178-0.299s0.014-0.241 0.086-0.337l0.003-0.004 0.013-0.017c0.066-0.091 0.128-0.185 0.185-0.282 0.049-0.078 0.092-0.159 0.128-0.243 0.024-0.055 0.031-0.084 0.034-0.094-0.010-0.082-0.038-0.16-0.082-0.229-0.084-0.141-0.178-0.276-0.281-0.405l-0.009-0.011c-0.123-0.157-0.235-0.322-0.336-0.494-0.124-0.205-0.193-0.438-0.2-0.677 0-0.171 0.059-0.335 0.108-0.449 0.054-0.125 0.122-0.249 0.184-0.353 0.072-0.119 0.149-0.235 0.23-0.347l0.023-0.032c0.072-0.097 0.18-0.161 0.299-0.178s0.241 0.014 0.337 0.086c0.097 0.072 0.16 0.18 0.178 0.299s-0.014 0.241-0.086 0.337z"></path>
<path fill="#101828" style="fill: var(--color2, #101828)" d="M34.504 20.364v-8.463h1.277v4.041h0.103l3.55-4.041h1.607l-3.413 3.81 3.426 4.653h-1.537l-2.736-3.781-1 1.149v2.632h-1.277zM42.529 20.364v-6.347h1.236v6.347h-1.236zM43.153 13.037c-0.215 0-0.399-0.072-0.554-0.215-0.152-0.146-0.227-0.32-0.227-0.521 0-0.204 0.076-0.377 0.227-0.521 0.154-0.146 0.339-0.219 0.554-0.219s0.398 0.073 0.55 0.219c0.154 0.143 0.231 0.317 0.231 0.521 0 0.201-0.077 0.375-0.231 0.521-0.151 0.143-0.335 0.215-0.55 0.215zM48.39 14.017v0.992h-3.467v-0.992h3.467zM45.853 12.496h1.236v6.004c0 0.24 0.036 0.42 0.108 0.541 0.072 0.118 0.164 0.2 0.277 0.244 0.116 0.041 0.241 0.062 0.376 0.062 0.099 0 0.186-0.007 0.26-0.021s0.132-0.025 0.174-0.033l0.223 1.021c-0.072 0.028-0.174 0.055-0.306 0.083-0.132 0.030-0.298 0.047-0.496 0.050-0.325 0.006-0.628-0.052-0.909-0.174s-0.508-0.308-0.682-0.562c-0.174-0.253-0.26-0.572-0.26-0.955v-6.26zM52.362 20.492c-0.614 0-1.143-0.139-1.587-0.417-0.441-0.281-0.78-0.668-1.017-1.161s-0.355-1.058-0.355-1.694c0-0.645 0.121-1.213 0.364-1.707 0.242-0.496 0.584-0.883 1.025-1.161s0.96-0.417 1.558-0.417c0.482 0 0.912 0.090 1.289 0.269 0.377 0.176 0.682 0.424 0.913 0.744 0.234 0.32 0.373 0.693 0.417 1.12h-1.202c-0.066-0.298-0.218-0.554-0.455-0.769-0.234-0.215-0.548-0.322-0.942-0.322-0.344 0-0.646 0.091-0.905 0.273-0.256 0.179-0.456 0.435-0.599 0.769-0.143 0.331-0.215 0.722-0.215 1.174 0 0.463 0.070 0.862 0.211 1.198s0.339 0.596 0.595 0.781c0.259 0.184 0.563 0.277 0.913 0.277 0.234 0 0.446-0.043 0.636-0.128 0.193-0.088 0.354-0.214 0.483-0.376 0.132-0.163 0.224-0.358 0.277-0.587h1.202c-0.044 0.41-0.178 0.777-0.401 1.099s-0.522 0.576-0.897 0.76c-0.372 0.184-0.809 0.277-1.31 0.277zM57.526 16.595v3.769h-1.236v-8.463h1.219v3.149h0.078c0.149-0.342 0.376-0.613 0.682-0.814s0.705-0.302 1.198-0.302c0.435 0 0.815 0.090 1.141 0.269 0.328 0.179 0.581 0.446 0.76 0.802 0.182 0.353 0.273 0.793 0.273 1.322v4.037h-1.236v-3.888c0-0.466-0.12-0.826-0.359-1.083-0.24-0.259-0.573-0.388-1-0.388-0.292 0-0.554 0.062-0.785 0.186-0.229 0.124-0.409 0.306-0.541 0.545-0.13 0.237-0.194 0.523-0.194 0.86zM66.026 20.492c-0.625 0-1.164-0.134-1.616-0.401-0.449-0.27-0.796-0.649-1.041-1.136-0.242-0.49-0.364-1.065-0.364-1.723 0-0.65 0.121-1.223 0.364-1.719 0.245-0.496 0.587-0.883 1.025-1.161 0.441-0.278 0.956-0.417 1.545-0.417 0.358 0 0.705 0.059 1.041 0.178s0.638 0.304 0.905 0.558c0.267 0.253 0.478 0.583 0.632 0.988 0.154 0.402 0.231 0.891 0.231 1.467v0.438h-5.045v-0.926h3.835c0-0.325-0.066-0.613-0.198-0.864-0.132-0.253-0.318-0.453-0.558-0.599-0.237-0.146-0.515-0.219-0.835-0.219-0.347 0-0.65 0.085-0.909 0.256-0.256 0.168-0.455 0.388-0.595 0.661-0.138 0.27-0.207 0.563-0.207 0.88v0.723c0 0.424 0.074 0.785 0.223 1.083 0.151 0.298 0.362 0.525 0.632 0.682 0.27 0.154 0.585 0.231 0.946 0.231 0.234 0 0.448-0.033 0.64-0.099 0.193-0.069 0.36-0.171 0.5-0.306s0.248-0.302 0.322-0.5l1.169 0.211c-0.094 0.344-0.262 0.646-0.504 0.905-0.24 0.256-0.541 0.456-0.905 0.599-0.361 0.14-0.773 0.211-1.236 0.211zM71.356 16.595v3.769h-1.236v-6.347h1.186v1.033h0.078c0.146-0.336 0.375-0.606 0.686-0.81 0.314-0.204 0.71-0.306 1.186-0.306 0.433 0 0.812 0.091 1.136 0.273 0.325 0.179 0.577 0.446 0.756 0.802s0.269 0.795 0.269 1.318v4.037h-1.236v-3.888c0-0.46-0.12-0.82-0.36-1.078-0.239-0.262-0.569-0.393-0.988-0.393-0.286 0-0.541 0.062-0.764 0.186-0.22 0.124-0.395 0.306-0.525 0.545-0.127 0.237-0.19 0.523-0.19 0.86z"></path>
</symbol>
<symbol id="icon-petrol_text" viewBox="0 0 79 32">
<path fill="#f2f4f7" style="fill: var(--color1, #f2f4f7)" d="M16 0h47.273c8.837 0 16 7.163 16 16s-7.163 16-16 16h-47.273c-8.837 0-16-7.163-16-16s7.163-16 16-16z"></path>
<path fill="#101828" style="fill: var(--color2, #101828)" d="M15.818 11c0-0.121 0.048-0.236 0.133-0.321s0.201-0.133 0.321-0.133h4.545c0.121 0 0.236 0.048 0.321 0.133s0.133 0.201 0.133 0.321v4.545c0 0.121-0.048 0.236-0.133 0.321s-0.201 0.133-0.321 0.133h-4.545c-0.121 0-0.236-0.048-0.321-0.133s-0.133-0.201-0.133-0.321v-4.545z"></path>
<path fill="#101828" style="fill: var(--color2, #101828)" d="M14 10.545c0-0.482 0.192-0.945 0.533-1.286s0.803-0.533 1.286-0.533h5.455c0.482 0 0.945 0.192 1.286 0.533s0.532 0.803 0.532 1.286v7.273c0.482 0 0.945 0.192 1.286 0.532s0.532 0.803 0.532 1.286v0.455c0 0.121 0.048 0.236 0.133 0.321s0.201 0.133 0.321 0.133 0.236-0.048 0.321-0.133c0.085-0.085 0.133-0.201 0.133-0.321v-4.091h-0.455c-0.121 0-0.236-0.048-0.321-0.133s-0.133-0.201-0.133-0.321v-2.841c0-0.121 0.048-0.236 0.133-0.321s0.201-0.133 0.321-0.133h1.359c-0.010-0.433-0.048-0.813-0.183-1.111-0.072-0.173-0.198-0.319-0.358-0.416-0.167-0.1-0.422-0.177-0.818-0.177-0.121 0-0.236-0.048-0.321-0.133s-0.133-0.201-0.133-0.321 0.048-0.236 0.133-0.321c0.085-0.085 0.201-0.133 0.321-0.133 0.513-0.001 0.941 0.101 1.284 0.305 0.348 0.207 0.576 0.501 0.722 0.825 0.268 0.595 0.267 1.332 0.267 1.892v2.886c0 0.060-0.012 0.119-0.034 0.174s-0.056 0.105-0.098 0.148c-0.042 0.042-0.092 0.076-0.148 0.099s-0.114 0.035-0.174 0.035h-0.455v4.091c0 0.362-0.144 0.709-0.399 0.964s-0.603 0.399-0.964 0.399-0.709-0.144-0.964-0.399c-0.256-0.256-0.399-0.603-0.399-0.964v-0.455c0-0.241-0.096-0.472-0.266-0.643s-0.402-0.266-0.643-0.266v3.636h0.455c0.121 0 0.236 0.048 0.321 0.133s0.133 0.201 0.133 0.321-0.048 0.236-0.133 0.321c-0.085 0.085-0.201 0.133-0.321 0.133h-10c-0.121 0-0.236-0.048-0.321-0.133s-0.133-0.201-0.133-0.321 0.048-0.236 0.133-0.321c0.085-0.085 0.201-0.133 0.321-0.133h0.455v-11.818zM22.182 10.545c0-0.241-0.096-0.472-0.266-0.643s-0.402-0.266-0.643-0.266h-5.455c-0.241 0-0.472 0.096-0.643 0.266s-0.266 0.402-0.266 0.643v11.818h7.273v-11.818z"></path>
<path fill="#101828" style="fill: var(--color2, #101828)" d="M34.413 20.364v-8.463h3.017c0.658 0 1.204 0.12 1.636 0.36s0.756 0.568 0.971 0.983c0.215 0.413 0.322 0.879 0.322 1.397 0 0.521-0.109 0.989-0.326 1.405-0.215 0.413-0.54 0.741-0.975 0.983-0.432 0.24-0.977 0.36-1.632 0.36h-2.074v-1.083h1.959c0.416 0 0.753-0.072 1.012-0.215 0.259-0.146 0.449-0.344 0.57-0.595s0.182-0.536 0.182-0.855-0.061-0.603-0.182-0.851c-0.121-0.248-0.313-0.442-0.574-0.583-0.259-0.14-0.601-0.211-1.025-0.211h-1.603v7.368h-1.277zM44.413 20.492c-0.625 0-1.164-0.134-1.616-0.401-0.449-0.27-0.796-0.649-1.041-1.136-0.242-0.49-0.364-1.065-0.364-1.723 0-0.65 0.121-1.223 0.364-1.719 0.245-0.496 0.587-0.883 1.025-1.161 0.441-0.278 0.956-0.417 1.545-0.417 0.358 0 0.705 0.059 1.041 0.178s0.638 0.304 0.905 0.558c0.267 0.253 0.478 0.583 0.632 0.988 0.154 0.402 0.231 0.891 0.231 1.467v0.438h-5.045v-0.926h3.835c0-0.325-0.066-0.613-0.198-0.864-0.132-0.253-0.318-0.453-0.558-0.599-0.237-0.146-0.515-0.219-0.835-0.219-0.347 0-0.65 0.085-0.909 0.256-0.256 0.168-0.455 0.388-0.595 0.661-0.138 0.27-0.207 0.563-0.207 0.88v0.723c0 0.424 0.074 0.785 0.223 1.083 0.151 0.298 0.362 0.525 0.632 0.682 0.27 0.154 0.585 0.231 0.946 0.231 0.234 0 0.448-0.033 0.641-0.099 0.193-0.069 0.359-0.171 0.5-0.306s0.248-0.302 0.322-0.5l1.169 0.211c-0.094 0.344-0.262 0.646-0.504 0.905-0.24 0.256-0.541 0.456-0.905 0.599-0.361 0.14-0.773 0.211-1.236 0.211zM51.47 14.017v0.992h-3.467v-0.992h3.467zM48.932 12.496h1.236v6.004c0 0.24 0.036 0.42 0.108 0.541 0.072 0.118 0.164 0.2 0.277 0.244 0.116 0.041 0.241 0.062 0.376 0.062 0.099 0 0.186-0.007 0.26-0.021s0.132-0.025 0.174-0.033l0.223 1.021c-0.072 0.028-0.174 0.055-0.306 0.083-0.132 0.030-0.298 0.047-0.496 0.050-0.325 0.006-0.628-0.052-0.909-0.174s-0.508-0.308-0.682-0.562c-0.174-0.253-0.26-0.572-0.26-0.955v-6.26zM52.836 20.364v-6.347h1.194v1.008h0.066c0.116-0.342 0.32-0.61 0.612-0.806 0.295-0.198 0.628-0.298 1-0.298 0.077 0 0.168 0.003 0.273 0.008 0.107 0.006 0.191 0.012 0.252 0.021v1.182c-0.050-0.014-0.138-0.029-0.264-0.045-0.127-0.019-0.253-0.029-0.38-0.029-0.292 0-0.552 0.062-0.781 0.186-0.226 0.121-0.405 0.291-0.537 0.508-0.132 0.215-0.198 0.46-0.198 0.736v3.876h-1.236zM59.748 20.492c-0.595 0-1.114-0.136-1.558-0.409s-0.788-0.654-1.033-1.145c-0.245-0.49-0.368-1.063-0.368-1.719 0-0.658 0.123-1.234 0.368-1.727s0.59-0.876 1.033-1.149c0.444-0.273 0.963-0.409 1.558-0.409s1.114 0.136 1.558 0.409c0.444 0.273 0.788 0.656 1.033 1.149s0.368 1.069 0.368 1.727c0 0.656-0.123 1.229-0.368 1.719s-0.59 0.872-1.033 1.145c-0.444 0.273-0.963 0.409-1.558 0.409zM59.753 19.455c0.386 0 0.705-0.102 0.959-0.306s0.441-0.475 0.562-0.814c0.124-0.339 0.186-0.712 0.186-1.12 0-0.405-0.062-0.777-0.186-1.116-0.121-0.342-0.309-0.616-0.562-0.822s-0.573-0.31-0.959-0.31c-0.388 0-0.711 0.103-0.967 0.31-0.253 0.207-0.442 0.481-0.566 0.822-0.121 0.339-0.182 0.711-0.182 1.116 0 0.408 0.061 0.781 0.182 1.12 0.124 0.339 0.313 0.61 0.566 0.814 0.256 0.204 0.578 0.306 0.967 0.306zM65.322 11.901v8.463h-1.236v-8.463h1.236z"></path>
</symbol>
<symbol id="icon-radio_text" viewBox="0 0 79 32">
<path fill="#f2f4f7" style="fill: var(--color1, #f2f4f7)" d="M16 0h46.545c8.837 0 16 7.163 16 16s-7.163 16-16 16h-46.545c-8.837 0-16-7.163-16-16s7.163-16 16-16z"></path>
<path fill="#101828" style="fill: var(--color2, #101828)" d="M19.455 11c0-0.121 0.048-0.236 0.133-0.321s0.201-0.133 0.321-0.133h6.364c0.121 0 0.236 0.048 0.321 0.133s0.133 0.201 0.133 0.321v0.909c0 0.121-0.048 0.236-0.133 0.321s-0.201 0.133-0.321 0.133h-6.364c-0.121 0-0.236-0.048-0.321-0.133s-0.133-0.201-0.133-0.321v-0.909zM13.091 19.636c0-0.723 0.287-1.417 0.799-1.928s1.205-0.799 1.928-0.799 1.417 0.287 1.929 0.799c0.511 0.512 0.799 1.205 0.799 1.928s-0.287 1.417-0.799 1.928c-0.512 0.511-1.205 0.799-1.928 0.799s-1.417-0.287-1.928-0.799c-0.511-0.512-0.799-1.205-0.799-1.928zM19.455 18.273c0-0.121 0.048-0.236 0.133-0.321s0.201-0.133 0.321-0.133h6.364c0.121 0 0.236 0.048 0.321 0.133s0.133 0.201 0.133 0.321v0.909c0 0.121-0.048 0.236-0.133 0.321s-0.201 0.133-0.321 0.133h-6.364c-0.121 0-0.236-0.048-0.321-0.133s-0.133-0.201-0.133-0.321v-0.909zM19.455 13.727c0-0.121 0.048-0.236 0.133-0.321s0.201-0.133 0.321-0.133h4.545c0.121 0 0.236 0.048 0.321 0.133s0.133 0.201 0.133 0.321-0.048 0.236-0.133 0.321c-0.085 0.085-0.201 0.133-0.321 0.133h-4.545c-0.121 0-0.236-0.048-0.321-0.133s-0.133-0.201-0.133-0.321zM19.455 21c0-0.121 0.048-0.236 0.133-0.321s0.201-0.133 0.321-0.133h4.545c0.121 0 0.236 0.048 0.321 0.133s0.133 0.201 0.133 0.321-0.048 0.236-0.133 0.321c-0.085 0.085-0.201 0.133-0.321 0.133h-4.545c-0.121 0-0.236-0.048-0.321-0.133s-0.133-0.201-0.133-0.321zM15.818 9.636c-0.358 0-0.713 0.071-1.044 0.208s-0.631 0.338-0.885 0.591c-0.253 0.253-0.454 0.554-0.591 0.885s-0.208 0.686-0.208 1.044 0.071 0.713 0.208 1.044c0.137 0.331 0.338 0.632 0.591 0.885s0.554 0.454 0.885 0.591c0.331 0.137 0.686 0.208 1.044 0.208 0.723 0 1.417-0.287 1.928-0.799s0.799-1.205 0.799-1.928-0.287-1.417-0.799-1.928c-0.512-0.511-1.205-0.799-1.928-0.799zM15.818 13.727c-0.362 0-0.709-0.144-0.964-0.399s-0.399-0.603-0.399-0.964 0.144-0.709 0.399-0.964c0.256-0.256 0.603-0.399 0.964-0.399s0.709 0.144 0.964 0.399c0.256 0.256 0.399 0.603 0.399 0.964s-0.144 0.709-0.399 0.964c-0.256 0.256-0.603 0.399-0.964 0.399z"></path>
<path fill="#101828" style="fill: var(--color2, #101828)" d="M34.725 20.364v-8.463h3.017c0.656 0 1.2 0.113 1.632 0.339 0.435 0.226 0.76 0.539 0.975 0.938 0.215 0.397 0.322 0.855 0.322 1.376 0 0.518-0.109 0.974-0.326 1.368-0.215 0.391-0.54 0.696-0.975 0.913-0.432 0.218-0.977 0.326-1.632 0.326h-2.285v-1.099h2.169c0.413 0 0.749-0.059 1.008-0.178 0.262-0.118 0.453-0.291 0.574-0.517s0.182-0.497 0.182-0.814c0-0.32-0.062-0.596-0.186-0.831-0.121-0.234-0.313-0.413-0.574-0.537-0.259-0.127-0.599-0.19-1.021-0.19h-1.603v7.368h-1.277zM38.903 16.545l2.091 3.818h-1.455l-2.050-3.818h1.413zM43.973 20.504c-0.402 0-0.766-0.074-1.091-0.223-0.325-0.152-0.583-0.371-0.773-0.657-0.187-0.287-0.281-0.638-0.281-1.054 0-0.358 0.069-0.653 0.207-0.884s0.324-0.415 0.558-0.55c0.234-0.135 0.496-0.237 0.785-0.306s0.584-0.121 0.884-0.157c0.38-0.044 0.689-0.080 0.926-0.107 0.237-0.030 0.409-0.078 0.517-0.145s0.161-0.174 0.161-0.322v-0.029c0-0.361-0.102-0.64-0.306-0.839-0.201-0.198-0.501-0.298-0.901-0.298-0.416 0-0.744 0.092-0.983 0.277-0.237 0.182-0.401 0.384-0.492 0.607l-1.161-0.264c0.138-0.386 0.339-0.697 0.603-0.934 0.267-0.24 0.574-0.413 0.921-0.521 0.347-0.11 0.712-0.165 1.095-0.165 0.253 0 0.522 0.030 0.806 0.091 0.286 0.058 0.554 0.165 0.802 0.322 0.251 0.157 0.456 0.382 0.616 0.674 0.16 0.289 0.24 0.665 0.24 1.128v4.215h-1.207v-0.868h-0.050c-0.080 0.16-0.2 0.317-0.359 0.471s-0.365 0.282-0.616 0.384c-0.251 0.102-0.551 0.153-0.901 0.153zM44.242 19.512c0.342 0 0.634-0.067 0.876-0.202 0.245-0.135 0.431-0.311 0.558-0.529 0.129-0.22 0.194-0.456 0.194-0.707v-0.818c-0.044 0.044-0.129 0.085-0.256 0.124-0.124 0.036-0.266 0.067-0.426 0.095-0.16 0.025-0.315 0.048-0.467 0.070-0.152 0.019-0.278 0.036-0.38 0.050-0.24 0.030-0.459 0.081-0.657 0.153-0.196 0.072-0.353 0.175-0.471 0.31-0.116 0.132-0.174 0.309-0.174 0.529 0 0.306 0.113 0.537 0.339 0.694 0.226 0.154 0.514 0.231 0.864 0.231zM51.127 20.488c-0.512 0-0.97-0.131-1.372-0.393-0.4-0.265-0.714-0.64-0.942-1.128-0.226-0.49-0.339-1.078-0.339-1.764s0.114-1.273 0.343-1.76c0.231-0.488 0.548-0.861 0.95-1.12s0.858-0.388 1.368-0.388c0.394 0 0.711 0.066 0.95 0.198 0.242 0.129 0.43 0.281 0.562 0.455 0.135 0.174 0.24 0.326 0.314 0.459h0.074v-3.145h1.236v8.463h-1.207v-0.988h-0.103c-0.074 0.135-0.182 0.289-0.322 0.463-0.138 0.174-0.328 0.325-0.57 0.455s-0.556 0.194-0.942 0.194zM51.4 19.434c0.355 0 0.656-0.094 0.901-0.281 0.248-0.19 0.435-0.453 0.562-0.789 0.129-0.336 0.194-0.727 0.194-1.174 0-0.441-0.063-0.826-0.19-1.157s-0.313-0.588-0.558-0.773c-0.245-0.185-0.548-0.277-0.909-0.277-0.372 0-0.682 0.096-0.93 0.289s-0.435 0.456-0.562 0.789c-0.124 0.333-0.186 0.709-0.186 1.128 0 0.424 0.063 0.806 0.19 1.145s0.314 0.608 0.562 0.806c0.251 0.196 0.559 0.293 0.926 0.293zM56.035 20.364v-6.347h1.236v6.347h-1.236zM56.659 13.037c-0.215 0-0.399-0.072-0.554-0.215-0.151-0.146-0.227-0.32-0.227-0.521 0-0.204 0.076-0.377 0.227-0.521 0.154-0.146 0.339-0.219 0.554-0.219s0.398 0.073 0.55 0.219c0.154 0.143 0.231 0.317 0.231 0.521 0 0.201-0.077 0.375-0.231 0.521-0.151 0.143-0.335 0.215-0.55 0.215zM61.606 20.492c-0.595 0-1.114-0.136-1.558-0.409s-0.788-0.654-1.033-1.145c-0.245-0.49-0.368-1.063-0.368-1.719 0-0.658 0.123-1.234 0.368-1.727s0.59-0.876 1.033-1.149c0.444-0.273 0.963-0.409 1.558-0.409s1.114 0.136 1.558 0.409c0.444 0.273 0.788 0.656 1.033 1.149s0.368 1.069 0.368 1.727c0 0.656-0.123 1.229-0.368 1.719s-0.59 0.872-1.033 1.145c-0.444 0.273-0.963 0.409-1.558 0.409zM61.611 19.455c0.386 0 0.705-0.102 0.959-0.306s0.441-0.475 0.562-0.814c0.124-0.339 0.186-0.712 0.186-1.12 0-0.405-0.062-0.777-0.186-1.116-0.121-0.342-0.309-0.616-0.562-0.822s-0.573-0.31-0.959-0.31c-0.388 0-0.711 0.103-0.967 0.31-0.253 0.207-0.442 0.481-0.566 0.822-0.121 0.339-0.182 0.711-0.182 1.116 0 0.408 0.061 0.781 0.182 1.12 0.124 0.339 0.313 0.61 0.566 0.814 0.256 0.204 0.579 0.306 0.967 0.306z"></path>
</symbol>
<symbol id="icon-star" viewBox="0 0 32 32">
<path fill="#f2f4f7" style="fill: var(--color1, #f2f4f7)" d="M15.116 1.676c0.375-0.711 1.394-0.711 1.769 0l3.777 7.158c0.145 0.274 0.408 0.466 0.714 0.519l7.975 1.38c0.792 0.137 1.107 1.106 0.547 1.682l-5.641 5.804c-0.216 0.222-0.317 0.532-0.273 0.839l1.152 8.010c0.114 0.796-0.71 1.395-1.431 1.040l-7.263-3.571c-0.278-0.137-0.604-0.137-0.882 0l-7.262 3.571c-0.722 0.355-1.546-0.244-1.431-1.040l1.152-8.010c0.044-0.307-0.057-0.617-0.273-0.839l-5.64-5.804c-0.56-0.577-0.246-1.545 0.547-1.682l7.974-1.38c0.306-0.053 0.569-0.244 0.714-0.519l3.776-7.158z"></path>
</symbol>
<symbol id="icon-strat_full" viewBox="0 0 32 32">
<path fill="#ffc531" style="fill: var(--color4, #ffc531)" d="M15.116 1.676c0.375-0.711 1.394-0.711 1.769 0l3.777 7.158c0.145 0.274 0.408 0.466 0.714 0.519l7.975 1.38c0.792 0.137 1.107 1.106 0.547 1.682l-5.641 5.804c-0.216 0.222-0.317 0.532-0.273 0.839l1.152 8.010c0.114 0.796-0.71 1.395-1.431 1.040l-7.263-3.571c-0.278-0.137-0.604-0.137-0.882 0l-7.262 3.571c-0.722 0.355-1.546-0.244-1.431-1.040l1.152-8.010c0.044-0.307-0.057-0.617-0.273-0.839l-5.64-5.804c-0.56-0.577-0.246-1.545 0.547-1.682l7.974-1.38c0.306-0.053 0.569-0.244 0.714-0.519l3.776-7.158z"></path>
</symbol>
<symbol id="icon-tv" viewBox="0 0 32 32">
<path d="M0 8c0 0 0-4 4-4h24c0 0 4 0 4 4v12c0 0 0 4-4 4h-8c0 1.333 0.167 2.333 0.5 3h1.5c0.265 0 0.52 0.105 0.707 0.293s0.293 0.442 0.293 0.707c0 0.265-0.105 0.52-0.293 0.707s-0.442 0.293-0.707 0.293h-12c-0.265 0-0.52-0.105-0.707-0.293s-0.293-0.442-0.293-0.707c0-0.265 0.105-0.52 0.293-0.707s0.442-0.293 0.707-0.293h1.5c0.333-0.667 0.5-1.667 0.5-3h-8c0 0-4 0-4-4v-12zM2.796 6.29c-0.22 0.153-0.395 0.361-0.508 0.604-0.168 0.353-0.266 0.735-0.288 1.126v11.98c0 0.65 0.156 1.004 0.29 1.204 0.14 0.208 0.341 0.377 0.604 0.508 0.338 0.162 0.703 0.259 1.076 0.286l0.050 0.002h23.98c0.65 0 1.004-0.156 1.204-0.29 0.22-0.153 0.395-0.361 0.508-0.604 0.162-0.338 0.259-0.703 0.286-1.076l0.002-0.050v-11.98c0-0.65-0.156-1.004-0.29-1.204-0.153-0.22-0.361-0.395-0.604-0.508-0.353-0.168-0.736-0.266-1.126-0.288h-23.98c-0.65 0-1.004 0.156-1.204 0.29z"></path>
</symbol>
<symbol id="icon-map" viewBox="0 0 32 32">
<path d="M31.634 0.226c0.115 0.094 0.207 0.212 0.27 0.346s0.096 0.28 0.096 0.428v28c-0 0.231-0.080 0.455-0.227 0.634s-0.351 0.301-0.577 0.346l-10 2c-0.129 0.026-0.263 0.026-0.392 0l-9.804-1.96-9.804 1.96c-0.145 0.029-0.295 0.025-0.438-0.010s-0.277-0.103-0.392-0.197c-0.114-0.094-0.207-0.212-0.27-0.345s-0.096-0.28-0.096-0.428v-28c0-0.231 0.080-0.455 0.227-0.634s0.351-0.301 0.577-0.346l10-2c0.129-0.026 0.263-0.026 0.392 0l9.804 1.96 9.804-1.96c0.145-0.029 0.295-0.026 0.438 0.010s0.277 0.103 0.392 0.196zM20 3.82l-8-1.6v25.96l8 1.6v-25.96zM22 29.78l8-1.6v-25.96l-8 1.6v25.96zM10 28.18v-25.96l-8 1.6v25.96l8-1.6z"></path>
</symbol>
</defs>
</svg>
